<?xml version="1.0" encoding="UTF-8" standalone="no"?>
<svg width="276px" height="130px" viewBox="0 0 276 130" version="1.1" xmlns="http://www.w3.org/2000/svg" xmlns:xlink="http://www.w3.org/1999/xlink">
    <!-- Generator: Sketch 3.8.3 (29802) - http://www.bohemiancoding.com/sketch -->
    <title>krew_logo_130_wit</title>
    <desc>Created with Sketch.</desc>
    <defs></defs>
    <g id="point" stroke="none" stroke-width="1" fill="none" fill-rule="evenodd">
        <g id="krew_logo_130_wit">
            <rect id="Rectangle-157" x="0" y="0" width="130" height="130"></rect>
            <g id="Group" transform="translate(39.000000, 19.000000)">
                <path d="M56.1290323,79.2920792 L35.4548387,46.5594059 C34.8935484,45.7128713 34.9870968,44.5841584 35.5483871,43.7376238 L55.8483871,15.2376238 C60.0580645,9.40594059 56.5967742,0.846534653 49.4870968,0.0940594059 C46.1193548,-0.282178218 42.8451613,1.22277228 40.8806452,3.95049505 L4.58387097,54.9306931 C4.58387097,54.9306931 4.58387097,54.9306931 4.58387097,55.0247525 L19.1774194,66.6881188 L19.2709677,66.6881188 L22.0774194,62.7376238 C22.4516129,62.1732673 23.2935484,62.1732673 23.6677419,62.7376238 L40.6935484,89.7326733 C42.4709677,92.6485149 45.7451613,94.2475248 49.1129032,94.0594059 C56.0354839,93.5891089 59.8709677,85.3118812 56.1290323,79.2920792 L56.1290323,79.2920792 Z" id="Shape" fill="#FFFFFF"></path>
                <path d="M9.72903226,94.0594059 L9.72903226,94.0594059 C4.58387097,94.0594059 0.374193548,89.8267327 0.374193548,84.6534653 L0.374193548,84.6534653 C0.374193548,79.480198 4.58387097,75.2475248 9.72903226,75.2475248 L9.72903226,75.2475248 C14.8741935,75.2475248 19.083871,79.480198 19.083871,84.6534653 L19.083871,84.6534653 C19.083871,89.8267327 14.8741935,94.0594059 9.72903226,94.0594059 L9.72903226,94.0594059 Z" id="Shape" fill="#FFFFFF"></path>
                <path d="M19.083871,66.6881188 L4.11612903,66.6881188 C2.05806452,66.6881188 0.374193548,64.9950495 0.374193548,62.9257426 L0.374193548,9.40594059 C0.374193548,4.23267327 4.58387097,0 9.72903226,0 L9.72903226,0 C14.8741935,0 19.083871,4.23267327 19.083871,9.40594059 L19.083871,66.6881188 L19.083871,66.6881188 Z" id="Shape" fill="#FFFFFF"></path>
                <polygon id="Shape" fill="#000000" opacity="0.07" points="19.083871 66.6881188 19.083871 34.4257426 27.6903226 22.2920792"></polygon>
            </g>
            <path d="M164,84.4 C162.433326,84.4 161.65,83.6166745 161.65,82.05 C161.65,80.449992 162.433326,79.65 164,79.65 C165.566675,79.65 166.35,80.449992 166.35,82.05 C166.35,83.6166745 165.566675,84.4 164,84.4 L164,84.4 Z M175.4,67.25 L189.95,50.6 C190.283335,50.1666645 190.73333,49.95 191.3,49.95 C191.766669,49.95 192.174998,50.1249983 192.525,50.475 C192.875002,50.8250018 193.05,51.233331 193.05,51.7 C193.05,52.100002 192.883335,52.499998 192.55,52.9 L182.1,64.6 L194.2,81.65 C194.433335,82.0166685 194.55,82.366665 194.55,82.7 C194.55,83.166669 194.383335,83.566665 194.05,83.9 C193.716665,84.233335 193.316669,84.4 192.85,84.4 C192.249997,84.4 191.766669,84.133336 191.4,83.6 L179.8,67.1 L175.4,72.05 L175.4,82.7 C175.4,83.166669 175.233335,83.566665 174.9,83.9 C174.566665,84.233335 174.166669,84.4 173.7,84.4 C173.233331,84.4 172.833335,84.233335 172.5,83.9 C172.166665,83.566665 172,83.166669 172,82.7 L172,51.65 C172,51.183331 172.166665,50.783335 172.5,50.45 C172.833335,50.116665 173.233331,49.95 173.7,49.95 C174.166669,49.95 174.566665,50.116665 174.9,50.45 C175.233335,50.783335 175.4,51.183331 175.4,51.65 L175.4,67.25 Z M202.15,62.5 L202.15,64.7 C202.683336,63.499994 203.558327,62.533337 204.775,61.8 C205.991673,61.066663 207.433325,60.7 209.1,60.7 C209.533335,60.7 209.899998,60.8499985 210.2,61.15 C210.500001,61.4500015 210.65,61.8166645 210.65,62.25 C210.65,62.6833355 210.500001,63.0499985 210.2,63.35 C209.899998,63.6500015 209.533335,63.8 209.1,63.8 C206.866655,63.8 205.150006,64.5083263 203.95,65.925 C202.749994,67.3416738 202.15,69.2333215 202.15,71.6 L202.15,82.8 C202.15,83.266669 201.991668,83.6499985 201.675,83.95 C201.358332,84.2500015 200.983335,84.4 200.55,84.4 C200.116664,84.4 199.741668,84.2500015 199.425,83.95 C199.108332,83.6499985 198.95,83.266669 198.95,82.8 L198.95,62.5 C198.95,62.033331 199.108332,61.6500015 199.425,61.35 C199.741668,61.0499985 200.116664,60.9 200.55,60.9 C200.983335,60.9 201.358332,61.0499985 201.675,61.35 C201.991668,61.6500015 202.15,62.033331 202.15,62.5 L202.15,62.5 Z M212.9,72.6 C212.9,68.7666475 213.799991,65.8083438 215.6,63.725 C217.400009,61.6416563 219.933317,60.6 223.2,60.6 C224.733341,60.6 226.083328,60.833331 227.25,61.3 C228.416673,61.766669 229.341663,62.3499965 230.025,63.05 C230.708337,63.7500035 231.258331,64.5583288 231.675,65.475 C232.091669,66.3916713 232.374999,67.2416628 232.525,68.025 C232.675001,68.8083373 232.75,69.5833295 232.75,70.35 C232.75,70.8500025 232.733334,71.233332 232.7,71.5 C232.666667,71.766668 232.600001,72.0833315 232.5,72.45 C232.4,72.8166685 232.200002,73.0916658 231.9,73.275 C231.599999,73.4583343 231.216669,73.55 230.75,73.55 L216.15,73.55 C216.15,76.0500125 216.824993,78.033326 218.175,79.5 C219.525007,80.966674 221.366655,81.7 223.7,81.7 C225.800011,81.7 227.799991,80.9833405 229.7,79.55 C230.000002,79.349999 230.299999,79.25 230.6,79.25 C231.000002,79.25 231.341665,79.3916653 231.625,79.675 C231.908335,79.9583348 232.05,80.299998 232.05,80.7 C232.05,81.100002 231.866669,81.4833315 231.5,81.85 C229.633324,83.716676 227.03335,84.65 223.7,84.65 C220.26665,84.65 217.608343,83.6583433 215.725,81.675 C213.841657,79.6916568 212.9,76.666687 212.9,72.6 L212.9,72.6 Z M229.6,70.75 C229.6,65.9166425 227.466688,63.5 223.2,63.5 C221.066656,63.5 219.400006,64.1416603 218.2,65.425 C216.999994,66.7083397 216.316668,68.483322 216.15,70.75 L229.6,70.75 Z M255.05,83.25 L250.45,67.4 L245.85,83.25 C245.616666,84.0166705 245.100004,84.4 244.3,84.4 C243.566663,84.4 243.066668,84.0500035 242.8,83.35 L235.45,63.2 C235.35,62.933332 235.3,62.700001 235.3,62.5 C235.3,62.033331 235.458332,61.6500015 235.775,61.35 C236.091668,61.0499985 236.466665,60.9 236.9,60.9 C237.633337,60.9 238.133332,61.2499965 238.4,61.95 L244.2,78.5 L248.95,61.95 C249.150001,61.2499965 249.649996,60.9 250.45,60.9 C251.250004,60.9 251.749999,61.2499965 251.95,61.95 L256.7,78.5 L262.5,61.95 C262.766668,61.2499965 263.266663,60.9 264,60.9 C264.433336,60.9 264.808332,61.0499985 265.125,61.35 C265.441668,61.6500015 265.6,62.033331 265.6,62.5 C265.6,62.700001 265.550001,62.933332 265.45,63.2 L258.1,83.35 C257.833332,84.0500035 257.333337,84.4 256.6,84.4 C255.799996,84.4 255.283335,84.0166705 255.05,83.25 L255.05,83.25 Z" id=".Krew" fill="#FFFFFF"></path>
        </g>
    </g>
</svg>