<?xml version="1.0" encoding="UTF-8" standalone="no"?>
<svg width="20px" height="38px" viewBox="0 0 20 38" version="1.1" xmlns="http://www.w3.org/2000/svg" xmlns:xlink="http://www.w3.org/1999/xlink">
    <!-- Generator: Sketch 3.8.3 (29802) - http://www.bohemiancoding.com/sketch -->
    <title>poz_icon</title>
    <desc>Created with Sketch.</desc>
    <defs></defs>
    <g id="point" stroke="none" stroke-width="1" fill="none" fill-rule="evenodd">
        <g id="poz_icon" fill="#F55D58">
            <path d="M15.991846,10.0740244 C15.6723499,6.34468343 12.8455204,3.99824523 9.07335569,4.33104731 C5.99921882,4.60236666 3.51467388,7.75419813 3.81918166,10.9965713 C4.12384239,14.2415446 7.12242584,16.7135483 10.4588585,16.4703703 C13.6729374,16.2362159 16.2631653,13.2416089 15.991846,10.0740244 M10.0921032,38.1935061 C9.32158077,36.1910347 8.58822324,34.2887405 7.85715985,32.3855286 C5.45933309,26.1425837 3.02495317,19.9134036 0.675456128,13.6525644 C-1.79425343,7.07161739 2.86344628,0.827295998 8.8893663,0.0761971842 C14.094293,-0.5724304 18.8169931,2.98836833 19.8522584,8.1512359 C20.1934723,9.85287007 19.9126705,11.4717625 19.3275139,13.0724549 C16.3277069,21.2782591 13.3364647,29.4872752 10.3398695,37.6943029 C10.2910809,37.8281273 10.2133863,37.9513987 10.0921032,38.1935061" id="Fill-1"></path>
        </g>
    </g>
</svg>