<?xml version="1.0" encoding="UTF-8" standalone="no"?>
<svg width="140px" height="47px" viewBox="0 0 140 47" version="1.1" xmlns="http://www.w3.org/2000/svg" xmlns:xlink="http://www.w3.org/1999/xlink">
    <!-- Generator: Sketch 3.8.3 (29802) - http://www.bohemiancoding.com/sketch -->
    <title>store_google_wit</title>
    <desc>Created with Sketch.</desc>
    <defs>
        <rect id="path-1" x="0" y="0" width="140" height="47" rx="4"></rect>
        <mask id="mask-2" maskContentUnits="userSpaceOnUse" maskUnits="objectBoundingBox" x="0" y="0" width="140" height="47" fill="white">
            <use xlink:href="#path-1"></use>
        </mask>
    </defs>
    <g id="point" stroke="none" stroke-width="1" fill="none" fill-rule="evenodd">
        <g id="store_google_wit">
            <g id="icon-googleplay-white">
                <use id="Rectangle-4" stroke="#FFFFFF" mask="url(#mask-2)" stroke-width="4" xlink:href="#path-1"></use>
                <path d="M95.8406535,33.5106432 L94.8166249,34.4732054 C94.5806035,34.6028541 94.3452165,34.753373 94.1104639,34.8602541 C93.3992272,35.1821622 92.6759356,35.2631135 92.0332212,35.2631135 C91.3492665,35.2631135 90.2770185,35.2194757 89.183833,34.4308324 C87.6642862,33.3632865 87,31.5298649 87,29.9317081 C87,26.6228216 89.702192,25 91.9056935,25 C92.6765701,25 93.4677496,25.1922595 94.1110984,25.5976486 C95.1808086,26.3021784 95.4574359,27.218573 95.6109767,27.709973 L90.577121,29.7369189 L88.9287776,29.8646703 C89.4623637,32.577173 91.303585,34.1550919 93.3383184,34.1550919 C94.3547335,34.1550919 95.1091139,33.8249622 95.8013166,33.4834486 C95.8006822,33.4840811 95.9396303,33.4119838 95.8406535,33.5106432 L95.8406535,33.5106432 Z M92.8040978,28.1140973 C93.2133286,27.9661081 93.4252403,27.8377243 93.4252403,27.5411135 C93.4252403,26.6885946 92.4576792,25.7045297 91.3029505,25.7045297 C90.4470555,25.7045297 88.8418557,26.3685838 88.8418557,28.6738 C88.8418557,29.0336541 88.8843649,29.4169081 88.9065713,29.8001622 L92.8040978,28.1140973 L92.8040978,28.1140973 Z" id="Shape" fill="#FFFFFF"></path>
                <path d="M85.7128968,33.4670162 C85.7128968,34.2967676 85.861362,34.4257838 86.5649851,34.4902919 C86.9317066,34.5332973 87.2971592,34.5529027 87.6594395,34.5952757 L86.8676255,35.065173 L83.0944544,35.065173 C83.5893381,34.4251514 83.6743566,34.3619081 83.6743566,33.9350162 L83.6743566,33.4587946 L83.6661085,20.7703027 L82,20.7703027 L83.6032964,20 L86.6652308,20 C86.001579,20.3826216 85.8036255,20.6166216 85.7179726,21.3628919 L85.7128968,33.4670162 L85.7128968,33.4670162 Z" id="Shape" fill="#FFFFFF"></path>
                <path d="M79.9847585,25.7722 C80.4758354,26.1750595 81.5024019,27.0294757 81.5024019,28.6516649 C81.5024019,30.2321135 80.6084389,30.9771189 79.7068623,31.6822811 C79.4302349,31.9599189 79.1072916,32.2609568 79.1072916,32.726427 C79.1072916,33.1982216 79.4308694,33.4543568 79.6637185,33.6453514 L80.437133,34.2404703 C81.377412,35.0316432 82.234576,35.7570432 82.234576,37.2306108 C82.234576,39.2385838 80.2854955,41.2623676 76.6024186,41.2623676 C73.4998784,41.2623676 72,39.7900649 72,38.2108811 C72,37.4418432 72.3832177,36.353427 73.6502469,35.6084216 C74.9775504,34.7995405 76.7762624,34.6913946 77.7387478,34.6281514 C77.4380107,34.2411027 77.0947645,33.8357135 77.0947645,33.1741892 C77.0947645,32.8124378 77.2038927,32.5967784 77.3092141,32.3425405 C77.075096,32.3646757 76.8390745,32.3874432 76.6246249,32.3874432 C74.35387,32.3874432 73.0697102,30.6988486 73.0697102,29.0342865 C73.0697102,28.0527514 73.5189123,26.9643351 74.4414264,26.174427 C75.6621395,25.1726541 77.1176052,25 78.2742373,25 L82.686316,25 L81.3145999,25.7722 L79.9847585,25.7722 L79.9847585,25.7722 Z M78.4671151,35.2466703 C78.2920024,35.2239027 78.186681,35.2239027 77.9747692,35.2239027 C77.7806225,35.2239027 76.6239905,35.2656432 75.728124,35.5654162 C75.2541777,35.7380703 73.8843649,36.2484432 73.8843649,37.7650162 C73.8843649,39.2777946 75.3633059,40.3681081 77.6518259,40.3681081 C79.7068623,40.3681081 80.7987788,39.3859405 80.7987788,38.0635243 C80.7981443,36.9751081 80.0919833,36.4008595 78.4671151,35.2466703 L78.4671151,35.2466703 Z M79.0831819,31.1915135 C79.5780656,30.6994811 79.6212093,30.0189838 79.6212093,29.6319351 C79.6212093,28.0970216 78.7031366,25.706427 76.9234586,25.706427 C76.3683005,25.706427 75.7668265,25.9846973 75.4254836,26.4134865 C75.0638378,26.8580865 74.9553441,27.4348649 74.9553441,27.9895081 C74.9553441,29.4188054 75.7909362,31.7891622 77.6308885,31.7891622 C78.1670125,31.7891622 78.7443769,31.5292324 79.0831819,31.1915135 L79.0831819,31.1915135 Z" id="Shape" fill="#FFFFFF"></path>
                <path d="M66.2241956,35.2194757 C62.8209183,35.2194757 61,32.577173 61,30.1859459 C61,27.391227 63.2891544,25 66.5452355,25 C69.6928229,25 71.6641097,27.4563676 71.6641097,30.035427 C71.6641097,32.553773 69.7156637,35.2194757 66.2241956,35.2194757 L66.2241956,35.2194757 Z M68.9016434,33.4929351 C69.4193679,32.8099081 69.5449922,31.9573892 69.5449922,31.126373 C69.5449922,29.2467838 68.646588,25.6621568 65.9913465,25.6621568 C65.2851855,25.6621568 64.5739487,25.9372649 64.0612999,26.3869243 C63.2250733,27.133827 63.0759738,28.0717243 63.0759738,28.9925459 C63.0759738,31.1010757 64.1209398,34.5788216 66.715907,34.5788216 C67.554037,34.5788216 68.4086631,34.1746973 68.9016434,33.4929351 L68.9016434,33.4929351 Z" id="Shape" fill="#FFFFFF"></path>
                <path d="M55.2222922,35.2194757 C51.8183804,35.2194757 50,32.577173 50,30.1859459 C50,27.391227 52.2897889,25 55.5446011,25 C58.690285,25 60.6596685,27.4563676 60.6596685,30.035427 C60.6603029,32.553773 58.7143948,35.2194757 55.2222922,35.2194757 L55.2222922,35.2194757 Z M57.9003745,33.4929351 C58.4142922,32.8099081 58.5424544,31.9573892 58.5424544,31.126373 C58.5424544,29.2467838 57.6415122,25.6621568 54.9888086,25.6621568 C54.2801097,25.6621568 53.5764866,25.9372649 53.0625689,26.3869243 C52.2250733,27.133827 52.0766082,28.0717243 52.0766082,28.9925459 C52.0766082,31.1010757 53.1260155,34.5788216 55.7165414,34.5788216 C56.552768,34.5788216 57.4061252,34.1746973 57.9003745,33.4929351 L57.9003745,33.4929351 Z" id="Shape" fill="#FFFFFF"></path>
                <path d="M48.8294621,34.7250486 L45.9591366,35.3796162 C44.7961598,35.5623892 43.7518283,35.7236595 42.6459535,35.7236595 C37.108966,35.7236595 35,31.6609135 35,28.4823081 C35,24.599173 37.9889708,21 43.1072105,21 C44.1902445,21 45.2326726,21.1587405 46.1818342,21.4161405 C47.6861538,21.837973 48.3891425,22.3565676 48.8294621,22.6614 L47.1620847,24.2399514 L46.459096,24.3967946 L46.9603244,23.5999297 C46.2814454,22.9390378 45.0334502,21.7190757 42.6649875,21.7190757 C39.4983661,21.7190757 37.108966,24.1185243 37.108966,27.6215676 C37.108966,31.3839081 39.8371711,34.923 44.2111819,34.923 C45.4966106,34.923 46.158359,34.6656 46.7591986,34.4252757 L46.7591986,31.1998703 L43.7289875,31.3624054 L45.3354562,30.5022973 L49.5882838,30.5022973 L49.0686559,31.0012865 C48.9278044,31.1201838 48.9094049,31.1606595 48.870068,31.3200324 C48.8491306,31.502173 48.8300966,32.0814811 48.8300966,32.2851243 L48.8300966,34.7250486 L48.8294621,34.7250486 Z" id="Shape" fill="#FFFFFF"></path>
                <path d="M102.083034,33.6466162 L102.083034,39.0830054 L101,39.0830054 L101,25.2504432 L102.083034,25.2504432 L102.083034,26.8252 C102.787926,25.8076162 104.077162,25 105.575137,25 C108.260198,25 110.069696,27.0307405 110.069696,30.2453946 C110.069696,33.4385459 108.260198,35.5116595 105.575137,35.5116595 C104.161546,35.5122919 102.895151,34.785627 102.083034,33.6466162 L102.083034,33.6466162 Z M108.906085,30.246027 C108.906085,27.8231784 107.639055,25.9752108 105.39241,25.9752108 C103.997219,25.9752108 102.662936,27.0686865 102.083034,28.0211297 L102.083034,32.4487892 C102.662936,33.4037622 103.997219,34.5364486 105.39241,34.5364486 C107.639055,34.5364486 108.906085,32.6726703 108.906085,30.246027 L108.906085,30.246027 Z" id="Shape" fill="#FFFFFF"></path>
                <polygon id="Shape" fill="#FFFFFF" points="112 35.8319297 112 22 113.0824 22 113.0824 35.8319297 112 35.8319297"></polygon>
                <path d="M125.061462,37.9376703 C125.292408,38.0401243 125.68768,38.104 125.938929,38.104 C126.601312,38.104 127.062569,37.8339514 127.476875,36.8796108 L128.266786,35.0961514 L124,25 L125.208024,25 L128.867626,33.7490703 L132.491697,25 L133.716852,25 L128.513593,37.2141676 C127.973662,38.4727081 127.124112,39.0779459 125.957329,39.0779459 C125.607103,39.0779459 125.145846,39.0153351 124.874929,38.9331189 L125.061462,37.9376703 L125.061462,37.9376703 Z" id="Shape" fill="#FFFFFF"></path>
                <path d="M121.310321,35.2359189 C121.237992,34.8887135 121.183428,34.5832486 121.143456,34.3271135 C121.109829,34.0722432 121.09143,33.8116811 121.09143,33.5466919 C120.719633,34.0899514 120.19366,34.5421405 119.52176,34.8988324 C118.849226,35.2567892 118.210953,35.4332378 117.33412,35.4332378 C116.279003,35.4332378 115.460541,35.174573 114.875564,34.6496541 C114.293123,34.1253676 114,33.4151459 114,32.5164595 C114,31.6190378 114.424458,30.8904757 115.270836,30.3333027 C116.117214,29.7736 117.211668,29.4959622 118.564985,29.4959622 L121.090795,29.4959622 L121.090795,28.2513351 C121.090795,27.5347892 120.845257,26.9719243 120.356718,26.5627405 C119.865641,26.1541892 119.176611,25.9467514 118.282648,25.9467514 C117.466089,25.9467514 116.803707,26.1358486 116.299306,26.5039243 C115.799346,26.8795892 115.548098,27.3450595 115.548098,27.906027 L114.439685,27.906027 L114.416844,27.8522703 C114.376239,27.0965135 114.723926,26.4324595 115.46181,25.8601081 C116.195888,25.2877568 117.159008,25 118.343556,25 C119.523664,25 120.47917,25.2833297 121.199924,25.8487243 C121.919408,26.408427 122.28042,27.2173081 122.28042,28.2747351 L122.28042,33.2146649 C122.28042,33.5694595 122.296916,33.9122378 122.341963,34.2461622 C122.387645,34.5807189 122.460608,34.9146432 122.557682,35.2371838 L121.310321,35.2371838 L121.310321,35.2359189 Z M117.467358,34.449173 C118.387335,34.449173 119.048448,34.2442649 119.72479,33.8388757 C120.396055,33.4353838 120.852236,32.9098324 121.092064,32.2736054 L121.092064,30.3510108 L118.554199,30.3510108 C117.584735,30.3510108 116.782135,30.564773 116.150841,30.9967243 C115.518278,31.4267784 115.197238,31.9472703 115.197238,32.5525081 C115.197238,33.1229622 115.400267,33.5802108 115.804422,33.9261514 C116.208577,34.2758865 116.761832,34.449173 117.467358,34.449173 L117.467358,34.449173 Z" id="Shape" fill="#FFFFFF"></path>
                <polygon id="Shape" points="20.1069672 30.0517568 23.5813047 26.5885568 23.5800358 26.5885568 20.1069672 30.0517568 9.01839952 19 9.01776506 19 20.1069672 30.0536541 9 41.1250162 20.1069672 30.0536541 23.5965319 33.5320324 23.5984353 33.5320324"></polygon>
                <path d="M35,10.4922919 C35,8.36668649 36.5842624,7 38.5549147,7 C39.8752391,7 40.7381133,7.62737297 41.2767752,8.39704324 L40.3117519,8.95421622 C39.9462993,8.44763784 39.3061228,8.053 38.5549147,8.053 C37.2149219,8.053 36.2188098,9.06552432 36.2188098,10.4922919 C36.2188098,11.8994541 37.2142874,12.9315838 38.5549147,12.9315838 C39.2458485,12.9315838 39.8549362,12.6178973 40.15948,12.3244486 L40.15948,11.2815676 L38.1285534,11.2815676 L38.1285534,10.2393189 L41.337684,10.2393189 L41.337684,12.7595622 C40.677839,13.4988757 39.7229672,13.9947027 38.5549147,13.9947027 C36.5842624,13.9947027 35,12.6084108 35,10.4922919 L35,10.4922919 Z" id="Shape" fill="#FFFFFF"></path>
                <polygon id="Shape" fill="#FFFFFF" points="42 13.7524811 42 7 46.6404866 7 46.6404866 8.04288108 43.1877209 8.04288108 43.1877209 9.78396757 46.5700608 9.78396757 46.5700608 10.8268486 43.1877209 10.8268486 43.1877209 12.7102324 46.6404866 12.7102324 46.6404866 13.7524811 42 13.7524811"></polygon>
                <polygon id="Shape" fill="#FFFFFF" points="50.0512296 13.7518486 50.0512296 8.04288108 48 8.04288108 48 7 53.2908145 7 53.2908145 8.04288108 51.2402194 8.04288108 51.2402194 13.7518486"></polygon>
                <polygon id="Shape" fill="#FFFFFF" points="58 13.7524811 58 7 59.1877209 7 59.1877209 13.7524811"></polygon>
                <polygon id="Shape" fill="#FFFFFF" points="62.0512296 13.7518486 62.0512296 8.04288108 60 8.04288108 60 7 65.2908145 7 65.2908145 8.04288108 63.239585 8.04288108 63.239585 13.7518486"></polygon>
                <path d="M69,10.4922919 C69,8.47736216 70.4319905,7 72.4635516,7 C74.4836923,7 75.9264687,8.47799459 75.9264687,10.4922919 C75.9264687,12.5065892 74.4836923,13.9845838 72.4635516,13.9845838 C70.431356,13.9845838 69,12.5065892 69,10.4922919 L69,10.4922919 Z M74.7076589,10.4922919 C74.7076589,9.09524865 73.8238473,8.053 72.4635516,8.053 C71.0924699,8.053 70.2188098,9.09524865 70.2188098,10.4922919 C70.2188098,11.8785838 71.0924699,12.9315838 72.4635516,12.9315838 C73.8238473,12.9315838 74.7076589,11.8785838 74.7076589,10.4922919 L74.7076589,10.4922919 Z" id="Shape" fill="#FFFFFF"></path>
                <polygon id="Shape" fill="#FFFFFF" points="82.7216983 13.7524811 79.1877209 8.92385946 79.1877209 13.7524811 78 13.7524811 78 7 79.2188098 7 82.6817269 11.6774703 82.6817269 7 83.8700823 7 83.8700823 13.7524811"></polygon>
                <path d="M9.64474496,38.9650748 C9.2542029,38.8598787 9,38.4721398 9,37.8721315 L9,18.0667399 C9,17.5110408 9.21523732,17.1362622 9.55643007,17 L9.55643007,17 L19.2892072,28.0372633 L9.64474496,38.9650748 L9.64474496,38.9650748 Z M10.9845317,38.5446698 L22.6997237,31.9048922 L19.8463222,28.6690486 L10.9845317,38.5446698 L10.9845317,38.5446698 Z M22.7803956,24.0815167 L11.2284674,17.5327498 L19.8632139,27.3868759 L22.7803956,24.0815167 L22.7803956,24.0815167 Z M23.5641845,24.5258452 L28.0895939,27.0912915 C28.946426,27.577028 28.9542618,28.36003 28.0895939,28.8500947 L23.4496961,31.479833 L20.4233025,28.026059 L23.5641845,24.5258452 L23.5641845,24.5258452 Z" id="google-play" fill="#FFFFFF"></path>
            </g>
        </g>
    </g>
</svg>