<?xml version="1.0" encoding="UTF-8" standalone="no"?>
<svg width="140px" height="47px" viewBox="0 0 140 47" version="1.1" xmlns="http://www.w3.org/2000/svg" xmlns:xlink="http://www.w3.org/1999/xlink">
    <!-- Generator: Sketch 3.8.2 (29753) - http://www.bohemiancoding.com/sketch -->
    <title>store_google_wit copy</title>
    <desc>Created with Sketch.</desc>
    <defs>
        <rect id="path-1" x="0" y="0" width="140" height="47" rx="4"></rect>
        <mask id="mask-2" maskContentUnits="userSpaceOnUse" maskUnits="objectBoundingBox" x="0" y="0" width="140" height="47" fill="white">
            <use xlink:href="#path-1"></use>
        </mask>
        <linearGradient x1="60.0979097%" y1="91.9858265%" x2="33.4967036%" y2="-59.2430671%" id="linearGradient-3">
            <stop stop-color="#D6FFA1" offset="0%"></stop>
            <stop stop-color="#93E2A7" offset="32.64%"></stop>
            <stop stop-color="#00A3B5" offset="100%"></stop>
        </linearGradient>
        <linearGradient x1="-32.0120014%" y1="-128.796925%" x2="80.4537326%" y2="114.272484%" id="linearGradient-4">
            <stop stop-color="#FF177B" offset="0%"></stop>
            <stop stop-color="#FFA976" offset="67.21%"></stop>
            <stop stop-color="#FFEC73" offset="100%"></stop>
        </linearGradient>
        <linearGradient x1="50.8959453%" y1="74.7155744%" x2="-0.0203631119%" y2="-29.4416057%" id="linearGradient-5">
            <stop stop-color="#63FFD4" offset="0%"></stop>
            <stop stop-color="#32A0BA" offset="48.54%"></stop>
            <stop stop-color="#1262A9" offset="83.49%"></stop>
            <stop stop-color="#064AA2" offset="100%"></stop>
        </linearGradient>
        <linearGradient x1="119.293997%" y1="35.6765199%" x2="-22.9945868%" y2="61.1790827%" id="linearGradient-6">
            <stop stop-color="#FF4521" offset="0%"></stop>
            <stop stop-color="#D43E65" offset="34.11%"></stop>
            <stop stop-color="#9F36B9" offset="79.35%"></stop>
            <stop stop-color="#8A33DB" offset="100%"></stop>
        </linearGradient>
    </defs>
    <g id="Welcome" stroke="none" stroke-width="1" fill="none" fill-rule="evenodd">
        <g id="store_google_wit-copy">
            <g id="Group-5">
                <use id="Rectangle-4" stroke="#5D5D5D" mask="url(#mask-2)" stroke-width="4" xlink:href="#path-1"></use>
                <path d="M96.8406535,33.5106432 L95.8166249,34.4732054 C95.5806035,34.6028541 95.3452165,34.753373 95.1104639,34.8602541 C94.3992272,35.1821622 93.6759356,35.2631135 93.0332212,35.2631135 C92.3492665,35.2631135 91.2770185,35.2194757 90.183833,34.4308324 C88.6642862,33.3632865 88,31.5298649 88,29.9317081 C88,26.6228216 90.702192,25 92.9056935,25 C93.6765701,25 94.4677496,25.1922595 95.1110984,25.5976486 C96.1808086,26.3021784 96.4574359,27.218573 96.6109767,27.709973 L91.577121,29.7369189 L89.9287776,29.8646703 C90.4623637,32.577173 92.303585,34.1550919 94.3383184,34.1550919 C95.3547335,34.1550919 96.1091139,33.8249622 96.8013166,33.4834486 C96.8006822,33.4840811 96.9396303,33.4119838 96.8406535,33.5106432 L96.8406535,33.5106432 Z M93.8040978,28.1140973 C94.2133286,27.9661081 94.4252403,27.8377243 94.4252403,27.5411135 C94.4252403,26.6885946 93.4576792,25.7045297 92.3029505,25.7045297 C91.4470555,25.7045297 89.8418557,26.3685838 89.8418557,28.6738 C89.8418557,29.0336541 89.8843649,29.4169081 89.9065713,29.8001622 L93.8040978,28.1140973 L93.8040978,28.1140973 Z" id="Shape" fill="#575757"></path>
                <path d="M86.7128968,33.4670162 C86.7128968,34.2967676 86.861362,34.4257838 87.5649851,34.4902919 C87.9317066,34.5332973 88.2971592,34.5529027 88.6594395,34.5952757 L87.8676255,35.065173 L84.0944544,35.065173 C84.5893381,34.4251514 84.6743566,34.3619081 84.6743566,33.9350162 L84.6743566,33.4587946 L84.6661085,20.7703027 L83,20.7703027 L84.6032964,20 L87.6652308,20 C87.001579,20.3826216 86.8036255,20.6166216 86.7179726,21.3628919 L86.7128968,33.4670162 L86.7128968,33.4670162 Z" id="Shape" fill="#575757"></path>
                <path d="M80.9847585,25.7722 C81.4758354,26.1750595 82.5024019,27.0294757 82.5024019,28.6516649 C82.5024019,30.2321135 81.6084389,30.9771189 80.7068623,31.6822811 C80.4302349,31.9599189 80.1072916,32.2609568 80.1072916,32.726427 C80.1072916,33.1982216 80.4308694,33.4543568 80.6637185,33.6453514 L81.437133,34.2404703 C82.377412,35.0316432 83.234576,35.7570432 83.234576,37.2306108 C83.234576,39.2385838 81.2854955,41.2623676 77.6024186,41.2623676 C74.4998784,41.2623676 73,39.7900649 73,38.2108811 C73,37.4418432 73.3832177,36.353427 74.6502469,35.6084216 C75.9775504,34.7995405 77.7762624,34.6913946 78.7387478,34.6281514 C78.4380107,34.2411027 78.0947645,33.8357135 78.0947645,33.1741892 C78.0947645,32.8124378 78.2038927,32.5967784 78.3092141,32.3425405 C78.075096,32.3646757 77.8390745,32.3874432 77.6246249,32.3874432 C75.35387,32.3874432 74.0697102,30.6988486 74.0697102,29.0342865 C74.0697102,28.0527514 74.5189123,26.9643351 75.4414264,26.174427 C76.6621395,25.1726541 78.1176052,25 79.2742373,25 L83.686316,25 L82.3145999,25.7722 L80.9847585,25.7722 L80.9847585,25.7722 Z M79.4671151,35.2466703 C79.2920024,35.2239027 79.186681,35.2239027 78.9747692,35.2239027 C78.7806225,35.2239027 77.6239905,35.2656432 76.728124,35.5654162 C76.2541777,35.7380703 74.8843649,36.2484432 74.8843649,37.7650162 C74.8843649,39.2777946 76.3633059,40.3681081 78.6518259,40.3681081 C80.7068623,40.3681081 81.7987788,39.3859405 81.7987788,38.0635243 C81.7981443,36.9751081 81.0919833,36.4008595 79.4671151,35.2466703 L79.4671151,35.2466703 Z M80.0831819,31.1915135 C80.5780656,30.6994811 80.6212093,30.0189838 80.6212093,29.6319351 C80.6212093,28.0970216 79.7031366,25.706427 77.9234586,25.706427 C77.3683005,25.706427 76.7668265,25.9846973 76.4254836,26.4134865 C76.0638378,26.8580865 75.9553441,27.4348649 75.9553441,27.9895081 C75.9553441,29.4188054 76.7909362,31.7891622 78.6308885,31.7891622 C79.1670125,31.7891622 79.7443769,31.5292324 80.0831819,31.1915135 L80.0831819,31.1915135 Z" id="Shape" fill="#575757"></path>
                <path d="M67.2241956,35.2194757 C63.8209183,35.2194757 62,32.577173 62,30.1859459 C62,27.391227 64.2891544,25 67.5452355,25 C70.6928229,25 72.6641097,27.4563676 72.6641097,30.035427 C72.6641097,32.553773 70.7156637,35.2194757 67.2241956,35.2194757 L67.2241956,35.2194757 Z M69.9016434,33.4929351 C70.4193679,32.8099081 70.5449922,31.9573892 70.5449922,31.126373 C70.5449922,29.2467838 69.646588,25.6621568 66.9913465,25.6621568 C66.2851855,25.6621568 65.5739487,25.9372649 65.0612999,26.3869243 C64.2250733,27.133827 64.0759738,28.0717243 64.0759738,28.9925459 C64.0759738,31.1010757 65.1209398,34.5788216 67.715907,34.5788216 C68.554037,34.5788216 69.4086631,34.1746973 69.9016434,33.4929351 L69.9016434,33.4929351 Z" id="Shape" fill="#575757"></path>
                <path d="M56.2222922,35.2194757 C52.8183804,35.2194757 51,32.577173 51,30.1859459 C51,27.391227 53.2897889,25 56.5446011,25 C59.690285,25 61.6596685,27.4563676 61.6596685,30.035427 C61.6603029,32.553773 59.7143948,35.2194757 56.2222922,35.2194757 L56.2222922,35.2194757 Z M58.9003745,33.4929351 C59.4142922,32.8099081 59.5424544,31.9573892 59.5424544,31.126373 C59.5424544,29.2467838 58.6415122,25.6621568 55.9888086,25.6621568 C55.2801097,25.6621568 54.5764866,25.9372649 54.0625689,26.3869243 C53.2250733,27.133827 53.0766082,28.0717243 53.0766082,28.9925459 C53.0766082,31.1010757 54.1260155,34.5788216 56.7165414,34.5788216 C57.552768,34.5788216 58.4061252,34.1746973 58.9003745,33.4929351 L58.9003745,33.4929351 Z" id="Shape" fill="#575757"></path>
                <path d="M49.8294621,34.7250486 L46.9591366,35.3796162 C45.7961598,35.5623892 44.7518283,35.7236595 43.6459535,35.7236595 C38.108966,35.7236595 36,31.6609135 36,28.4823081 C36,24.599173 38.9889708,21 44.1072105,21 C45.1902445,21 46.2326726,21.1587405 47.1818342,21.4161405 C48.6861538,21.837973 49.3891425,22.3565676 49.8294621,22.6614 L48.1620847,24.2399514 L47.459096,24.3967946 L47.9603244,23.5999297 C47.2814454,22.9390378 46.0334502,21.7190757 43.6649875,21.7190757 C40.4983661,21.7190757 38.108966,24.1185243 38.108966,27.6215676 C38.108966,31.3839081 40.8371711,34.923 45.2111819,34.923 C46.4966106,34.923 47.158359,34.6656 47.7591986,34.4252757 L47.7591986,31.1998703 L44.7289875,31.3624054 L46.3354562,30.5022973 L50.5882838,30.5022973 L50.0686559,31.0012865 C49.9278044,31.1201838 49.9094049,31.1606595 49.870068,31.3200324 C49.8491306,31.502173 49.8300966,32.0814811 49.8300966,32.2851243 L49.8300966,34.7250486 L49.8294621,34.7250486 Z" id="Shape" fill="#575757"></path>
                <path d="M103.083034,33.6466162 L103.083034,39.0830054 L102,39.0830054 L102,25.2504432 L103.083034,25.2504432 L103.083034,26.8252 C103.787926,25.8076162 105.077162,25 106.575137,25 C109.260198,25 111.069696,27.0307405 111.069696,30.2453946 C111.069696,33.4385459 109.260198,35.5116595 106.575137,35.5116595 C105.161546,35.5122919 103.895151,34.785627 103.083034,33.6466162 L103.083034,33.6466162 Z M109.906085,30.246027 C109.906085,27.8231784 108.639055,25.9752108 106.39241,25.9752108 C104.997219,25.9752108 103.662936,27.0686865 103.083034,28.0211297 L103.083034,32.4487892 C103.662936,33.4037622 104.997219,34.5364486 106.39241,34.5364486 C108.639055,34.5364486 109.906085,32.6726703 109.906085,30.246027 L109.906085,30.246027 Z" id="Shape" fill="#434343"></path>
                <polygon id="Shape" fill="#434343" points="113 35.8319297 113 22 114.0824 22 114.0824 35.8319297 113 35.8319297"></polygon>
                <path d="M126.061462,37.9376703 C126.292408,38.0401243 126.68768,38.104 126.938929,38.104 C127.601312,38.104 128.062569,37.8339514 128.476875,36.8796108 L129.266786,35.0961514 L125,25 L126.208024,25 L129.867626,33.7490703 L133.491697,25 L134.716852,25 L129.513593,37.2141676 C128.973662,38.4727081 128.124112,39.0779459 126.957329,39.0779459 C126.607103,39.0779459 126.145846,39.0153351 125.874929,38.9331189 L126.061462,37.9376703 L126.061462,37.9376703 Z" id="Shape" fill="#434343"></path>
                <path d="M122.310321,35.2359189 C122.237992,34.8887135 122.183428,34.5832486 122.143456,34.3271135 C122.109829,34.0722432 122.09143,33.8116811 122.09143,33.5466919 C121.719633,34.0899514 121.19366,34.5421405 120.52176,34.8988324 C119.849226,35.2567892 119.210953,35.4332378 118.33412,35.4332378 C117.279003,35.4332378 116.460541,35.174573 115.875564,34.6496541 C115.293123,34.1253676 115,33.4151459 115,32.5164595 C115,31.6190378 115.424458,30.8904757 116.270836,30.3333027 C117.117214,29.7736 118.211668,29.4959622 119.564985,29.4959622 L122.090795,29.4959622 L122.090795,28.2513351 C122.090795,27.5347892 121.845257,26.9719243 121.356718,26.5627405 C120.865641,26.1541892 120.176611,25.9467514 119.282648,25.9467514 C118.466089,25.9467514 117.803707,26.1358486 117.299306,26.5039243 C116.799346,26.8795892 116.548098,27.3450595 116.548098,27.906027 L115.439685,27.906027 L115.416844,27.8522703 C115.376239,27.0965135 115.723926,26.4324595 116.46181,25.8601081 C117.195888,25.2877568 118.159008,25 119.343556,25 C120.523664,25 121.47917,25.2833297 122.199924,25.8487243 C122.919408,26.408427 123.28042,27.2173081 123.28042,28.2747351 L123.28042,33.2146649 C123.28042,33.5694595 123.296916,33.9122378 123.341963,34.2461622 C123.387645,34.5807189 123.460608,34.9146432 123.557682,35.2371838 L122.310321,35.2371838 L122.310321,35.2359189 Z M118.467358,34.449173 C119.387335,34.449173 120.048448,34.2442649 120.72479,33.8388757 C121.396055,33.4353838 121.852236,32.9098324 122.092064,32.2736054 L122.092064,30.3510108 L119.554199,30.3510108 C118.584735,30.3510108 117.782135,30.564773 117.150841,30.9967243 C116.518278,31.4267784 116.197238,31.9472703 116.197238,32.5525081 C116.197238,33.1229622 116.400267,33.5802108 116.804422,33.9261514 C117.208577,34.2758865 117.761832,34.449173 118.467358,34.449173 L118.467358,34.449173 Z" id="Shape" fill="#434343"></path>
                <polygon id="Shape" points="21.1069672 30.0517568 24.5813047 26.5885568 24.5800358 26.5885568 21.1069672 30.0517568 10.0183995 19 10.0177651 19 21.1069672 30.0536541 10 41.1250162 21.1069672 30.0536541 24.5965319 33.5320324 24.5984353 33.5320324"></polygon>
                <path d="M24.5616363,26.6312766 L11.0246631,19.2115793 C10.6414454,19.0022442 10.2867788,18.9535469 10,19.0420875 L21.0892021,30.0944766 L24.5616363,26.6312766 L24.5616363,26.6312766 Z" id="Shape" fill="url(#linearGradient-3)"></path>
                <path d="M24.4914681,32.9434757 L29.1122862,30.4105838 C30.049393,29.8951514 30.049393,29.0559135 29.1122862,28.5423784 L24.4743375,26 L21,29.4632 L24.4914681,32.9434757 L24.4914681,32.9434757 Z" id="Shape" fill="url(#linearGradient-4)"></path>
                <path d="M10.6782445,19 C10.2664758,19.1283838 10,19.5438919 10,20.1725297 L10.0025379,39.9575459 C10.0025379,40.5785946 10.2607657,40.9884108 10.6611139,41.1250162 L21.7680811,30.0536541 L10.6782445,19 L10.6782445,19 Z" id="Shape" fill="url(#linearGradient-5)"></path>
                <path d="M10,41.0713622 C10.2880477,41.1687568 10.6496935,41.1232216 11.0424281,40.9081946 L24.5965319,33.4783784 L21.1069672,30 L10,41.0713622 L10,41.0713622 Z" id="Shape" fill="url(#linearGradient-6)"></path>
                <path d="M36,10.4922919 C36,8.36668649 37.5842624,7 39.5549147,7 C40.8752391,7 41.7381133,7.62737297 42.2767752,8.39704324 L41.3117519,8.95421622 C40.9462993,8.44763784 40.3061228,8.053 39.5549147,8.053 C38.2149219,8.053 37.2188098,9.06552432 37.2188098,10.4922919 C37.2188098,11.8994541 38.2142874,12.9315838 39.5549147,12.9315838 C40.2458485,12.9315838 40.8549362,12.6178973 41.15948,12.3244486 L41.15948,11.2815676 L39.1285534,11.2815676 L39.1285534,10.2393189 L42.337684,10.2393189 L42.337684,12.7595622 C41.677839,13.4988757 40.7229672,13.9947027 39.5549147,13.9947027 C37.5842624,13.9947027 36,12.6084108 36,10.4922919 L36,10.4922919 Z" id="Shape" fill="#4B4B4B"></path>
                <polygon id="Shape" fill="#4B4B4B" points="43 13.7524811 43 7 47.6404866 7 47.6404866 8.04288108 44.1877209 8.04288108 44.1877209 9.78396757 47.5700608 9.78396757 47.5700608 10.8268486 44.1877209 10.8268486 44.1877209 12.7102324 47.6404866 12.7102324 47.6404866 13.7524811 43 13.7524811"></polygon>
                <polygon id="Shape" fill="#4B4B4B" points="51.0512296 13.7518486 51.0512296 8.04288108 49 8.04288108 49 7 54.2908145 7 54.2908145 8.04288108 52.2402194 8.04288108 52.2402194 13.7518486"></polygon>
                <polygon id="Shape" fill="#4B4B4B" points="59 13.7524811 59 7 60.1877209 7 60.1877209 13.7524811"></polygon>
                <polygon id="Shape" fill="#4B4B4B" points="63.0512296 13.7518486 63.0512296 8.04288108 61 8.04288108 61 7 66.2908145 7 66.2908145 8.04288108 64.239585 8.04288108 64.239585 13.7518486"></polygon>
                <path d="M70,10.4922919 C70,8.47736216 71.4319905,7 73.4635516,7 C75.4836923,7 76.9264687,8.47799459 76.9264687,10.4922919 C76.9264687,12.5065892 75.4836923,13.9845838 73.4635516,13.9845838 C71.431356,13.9845838 70,12.5065892 70,10.4922919 L70,10.4922919 Z M75.7076589,10.4922919 C75.7076589,9.09524865 74.8238473,8.053 73.4635516,8.053 C72.0924699,8.053 71.2188098,9.09524865 71.2188098,10.4922919 C71.2188098,11.8785838 72.0924699,12.9315838 73.4635516,12.9315838 C74.8238473,12.9315838 75.7076589,11.8785838 75.7076589,10.4922919 L75.7076589,10.4922919 Z" id="Shape" fill="#4B4B4B"></path>
                <polygon id="Shape" fill="#4B4B4B" points="83.7216983 13.7524811 80.1877209 8.92385946 80.1877209 13.7524811 79 13.7524811 79 7 80.2188098 7 83.6817269 11.6774703 83.6817269 7 84.8700823 7 84.8700823 13.7524811"></polygon>
                <path d="M9.64474496,39.9650748 C9.2542029,39.8598787 9,39.4721398 9,38.8721315 L9,19.0667399 C9,18.5110408 9.21523732,18.1362622 9.55643007,18 L9.55643007,18 L19.2892072,29.0372633 L9.64474496,39.9650748 L9.64474496,39.9650748 Z M10.9845317,39.5446698 L22.6997237,32.9048922 L19.8463222,29.6690486 L10.9845317,39.5446698 L10.9845317,39.5446698 Z M22.7803956,25.0815167 L11.2284674,18.5327498 L19.8632139,28.3868759 L22.7803956,25.0815167 L22.7803956,25.0815167 Z M23.5641845,25.5258452 L28.0895939,28.0912915 C28.946426,28.577028 28.9542618,29.36003 28.0895939,29.8500947 L23.4496961,32.479833 L20.4233025,29.026059 L23.5641845,25.5258452 L23.5641845,25.5258452 Z" id="google-play" fill="#5D5D5D"></path>
            </g>
        </g>
    </g>
</svg>