<?xml version="1.0" encoding="UTF-8" standalone="no"?>
<svg width="140px" height="47px" viewBox="0 0 140 47" version="1.1" xmlns="http://www.w3.org/2000/svg" xmlns:xlink="http://www.w3.org/1999/xlink">
    <!-- Generator: Sketch 3.8.1 (29687) - http://www.bohemiancoding.com/sketch -->
    <title>store_google_wit</title>
    <desc>Created with Sketch.</desc>
    <defs>
        <linearGradient x1="58.9170878%" y1="9.59026547%" x2="90.8103723%" y2="60.8514694%" id="linearGradient-1">
            <stop stop-color="#FF177B" offset="0%"></stop>
            <stop stop-color="#FFEC73" offset="100%"></stop>
        </linearGradient>
        <linearGradient x1="37.1029741%" y1="-44.0352456%" x2="0%" y2="101.060094%" id="linearGradient-2">
            <stop stop-color="#064AA2" offset="0%"></stop>
            <stop stop-color="#63FFD4" offset="100%"></stop>
        </linearGradient>
        <path d="M13.1753555,11.938 L0.473933649,0 C0.17760972,0.0682615642 0,0.288075219 0,0.658 L0,11.938 L0,23.5 C0,23.8138535 0.127580244,24.0005886 0.28436019,24.064 L13.1753555,11.938 Z" id="path-3"></path>
        <path d="M0.619371617,12.1058086 L7.96080076,8.10637999 C9.76864662,7.11294134 11.2033982,6.32451674 11.2033982,6.32451674 L16.5421989,3.47279911 L12.9878701,0.047748696 L0.0970252657,12.1752576 C0.240705638,12.2210836 0.493946544,12.196035 0.691514929,12.0993339" id="path-5"></path>
        <linearGradient x1="78.6453125%" y1="50%" x2="2.49516972%" y2="100%" id="linearGradient-7">
            <stop stop-color="#FF4521" offset="0%"></stop>
            <stop stop-color="#8A33DB" offset="100%"></stop>
        </linearGradient>
        <linearGradient x1="0%" y1="-24.1863374%" x2="64.2244373%" y2="100%" id="linearGradient-8">
            <stop stop-color="#00A3B5" offset="0%"></stop>
            <stop stop-color="#D6FFA1" offset="100%"></stop>
        </linearGradient>
        <path d="M0.770523586,0.20180618 C0.526010488,0.071937934 0.283067928,0.0347872911 0.0865435934,0.0872938586 L12.7985106,12.0426599 L16.3153527,8.74218946 L11.014218,5.83012047 C11.014218,5.83012047 6.0177267,3.08480956 3.0008159,1.42713655 L0.770523586,0.20180618 Z" id="path-9"></path>
    </defs>
    <g id="point" stroke="none" stroke-width="1" fill="none" fill-rule="evenodd">
        <g id="store_google_wit">
            <g id="Group-9">
                <g id="Play-Store">
                    <rect id="background" fill="#000000" x="0" y="0" width="140" height="47" rx="4"></rect>
                    <g id="icon" transform="translate(5.687204, 16.732000)">
                        <path d="M11.3913984,5.83012047 C11.3913984,5.83012047 1.73211933,0.522851318 1.16481485,0.211044574 C0.596566439,-0.100762171 0.0311498299,0.0883818605 0.0311498299,0.740086047 L0.0311498299,12.0700008 L0.0311498299,23.6302592 C0.0311498299,24.118101 0.435153684,24.3297176 0.928831291,24.0591105 C1.42156496,23.7885035 11.3913984,18.3098811 11.3913984,18.3098811 C11.3913984,18.3098811 12.7457829,17.5661171 13.4229752,17.1942351 C14.5128278,16.5957396 16.6925331,15.3987484 16.6925331,15.3987484 C16.6925331,15.3987484 21.1903797,12.9267671 21.788834,12.5990422 C22.3863444,12.2703811 22.3287644,11.8199936 21.8247035,11.5606228 C21.3196987,11.3021884 16.6925331,8.74218946 16.6925331,8.74218946 L11.3913984,5.83012047 Z" id="orange" fill="url(#linearGradient-1)"></path>
                        <g id="blue" transform="translate(0.000000, 0.094000)">
                            <mask id="mask-4" fill="white">
                                <use xlink:href="#path-3"></use>
                            </mask>
                            <use id="Clip-2" fill="url(#linearGradient-2)" xlink:href="#path-3"></use>
                            <path d="M16.6824645,8.648 L11.3744076,5.734 C11.3558181,5.77640265 1.70030613,0.459385728 1.13744076,0.188 C0.5651961,-0.165373141 0,0.0241182874 0,0.658 L0,12.032 C0,12.0277436 0,23.1195588 0,23.594 C0,24.0979724 0.403846295,24.3099777 0.853080569,24.064 C1.38987288,23.7677695 11.3558181,18.2790846 11.3744076,18.236 L16.6824645,15.322 C16.6548854,15.3626052 21.1509779,12.8860835 21.7061611,12.596 C22.3464762,12.228492 22.2889187,11.7772773 21.8009479,11.562 C21.2802465,11.258521 16.6548854,8.69382019 16.6824645,8.648" id="Fill-1" mask="url(#mask-4)"></path>
                        </g>
                        <g id="red" transform="translate(0.188000, 11.985364)">
                            <mask id="mask-6" fill="white">
                                <use xlink:href="#path-5"></use>
                            </mask>
                            <g id="Clip-8"></g>
                            <path d="M11.1864073,-6.15736434 C11.1678179,-6.11496169 1.51230589,-11.4319786 0.949440522,-11.7033643 C0.377195864,-12.0567375 -0.188000236,-11.8672461 -0.188000236,-11.2333643 L-0.188000236,0.140635659 C-0.188000236,0.136379306 -0.188000236,11.2281944 -0.188000236,11.7026357 C-0.188000236,12.2066081 0.215846059,12.4186134 0.665080333,12.1726357 C1.20187264,11.8764052 11.1678179,6.3877203 11.1864073,6.34463566 L16.4944642,3.43063566 C16.4668852,3.47124084 20.9629777,0.994719194 21.5181609,0.704635659 C22.1584759,0.337127651 22.1009184,-0.114087087 21.6129476,-0.329364341 C21.0922462,-0.632843326 16.4668852,-3.19754415 16.4944642,-3.24336434 L11.1864073,-6.15736434 Z" id="Fill-7" fill="url(#linearGradient-7)" mask="url(#mask-6)"></path>
                        </g>
                        <g id="green" transform="translate(0.377180, 0.000000)">
                            <mask id="mask-10" fill="white">
                                <use xlink:href="#path-9"></use>
                            </mask>
                            <use id="Clip-5" fill="url(#linearGradient-8)" xlink:href="#path-9"></use>
                            <path d="M16.3052841,8.742 L10.9972272,5.828 C10.9786377,5.87040265 1.32312574,0.553385728 0.760260369,0.282 C0.18801571,-0.0713731414 -0.37718039,0.118118287 -0.37718039,0.752 L-0.37718039,12.126 C-0.37718039,12.1217436 -0.37718039,23.2135588 -0.37718039,23.688 C-0.37718039,24.1919724 0.0266659054,24.4039777 0.475900179,24.158 C1.01269249,23.8617695 10.9786377,18.3730846 10.9972272,18.33 L16.3052841,15.416 C16.277705,15.4566052 20.7737975,12.9800835 21.3289807,12.69 C21.9692958,12.322492 21.9117383,11.8712773 21.4237675,11.656 C20.9030661,11.352521 16.277705,8.78782019 16.3052841,8.742" id="Fill-4" mask="url(#mask-10)"></path>
                        </g>
                    </g>
                    <g id="Google-play" transform="translate(32.890995, 18.894000)" fill="#FFFFFF">
                        <path d="M62.9967081,13.8997613 L61.9470685,14.8877546 C61.7044938,15.0207413 61.4632198,15.1751355 61.2225961,15.2847684 C60.4935714,15.6149644 59.7521903,15.698 59.0934016,15.698 C58.3923412,15.698 57.2932763,15.6525899 56.1720999,14.843642 C54.6145493,13.7492594 53.9336493,11.8679851 53.9336493,10.2286816 C53.9336493,6.83460336 56.7034231,5.17 58.9626844,5.17 C59.7521903,5.17 60.5631571,5.36720944 61.2225961,5.78303592 C62.3190597,6.50635344 62.6026055,7.44634186 62.7599864,7.9497449 L57.6008844,10.0288773 L55.9113159,10.1599178 C56.458247,12.9429063 58.3455172,14.5614509 60.4311393,14.5614509 C61.4729748,14.5614509 62.2462223,14.2221728 62.955737,13.8725153 C62.955737,13.8725153 63.0981602,13.7985617 62.9967081,13.8997613 L62.9967081,13.8997613 Z M59.844502,8.31688837 C60.258551,8.16406762 60.4739336,8.03214544 60.4739336,7.72519778 C60.4739336,6.84484576 59.4934605,5.828 58.3233219,5.828 C57.4566479,5.828 55.8293839,6.51373414 55.8293839,8.89486429 C55.8293839,9.26646688 55.8731033,9.66223344 55.8949631,10.058 L59.844502,8.31688837 L59.844502,8.31688837 Z" id="Fill-1"></path>
                        <path d="M52.2299641,13.7806952 C52.2299641,14.6290864 52.3816441,14.7611015 53.1005037,14.8277562 C53.4751663,14.8717612 53.8485325,14.8911752 54.2180095,14.9351803 L53.4090494,15.416 L49.554173,15.416 C50.059773,14.7611015 50.1466325,14.6957411 50.1466325,14.2595735 L50.1466325,13.7722824 L50.1382059,0.788207875 L48.436019,0.788207875 L50.0746817,0 L53.2029201,0 C52.5248975,0.392162539 52.3220092,0.63095458 52.2351497,1.39521854 L52.2299641,13.7806952" id="Fill-2"></path>
                        <path d="M46.2492051,6.24138944 C46.7507408,6.65355425 47.7971708,7.52835304 47.7971708,9.18736494 C47.7971708,10.8043192 46.8853465,11.5665329 45.9657566,12.2879831 C45.6836023,12.5720339 45.3535595,12.8800252 45.3535595,13.356247 C45.3535595,13.8395863 45.6836023,14.1016377 45.9211037,14.2970439 L46.7099708,14.9059091 C47.6690365,15.7153568 48.5433265,16.4575123 48.5433265,17.9651167 C48.5433265,20.0188233 46.5553037,22.09 42.7986395,22.09 C39.6341111,22.09 38.1042654,20.5830426 38.1042654,18.9673824 C38.1042654,18.1812282 38.4957868,17.0676715 39.7874839,16.3048107 C41.1413067,15.4772459 42.9753095,15.3666019 43.9576724,15.3018979 C43.6509267,14.9059091 43.3008224,14.4911561 43.3008224,13.8143517 C43.3008224,13.4442445 43.4121309,13.2236037 43.5195567,12.9634934 C43.2807609,12.9861398 43.0400238,13.0094333 42.8212895,13.0094333 C40.5051653,13.0094333 39.1959954,11.2818351 39.1959954,9.57947149 C39.1959954,8.5752646 39.6541725,7.46106082 40.5951182,6.65355425 C41.840221,5.62864206 43.3247667,5.452 44.5045081,5.452 L49.0047393,5.452 L47.6056165,6.24138944 L46.2492051,6.24138944 L46.2492051,6.24138944 Z M44.7128063,15.9097138 C44.5320965,15.886 44.4238012,15.886 44.2059056,15.886 C44.0062768,15.886 42.8169847,15.9294753 41.8958216,16.2417069 C41.4084924,16.4215365 40,16.9531207 40,18.5320642 C40,20.107714 41.520702,21.244 43.8731909,21.244 C45.986908,21.244 47.1090047,20.2210133 47.1090047,18.8436371 C47.1090047,17.709986 46.3829038,17.1118714 44.7128063,15.9097138 L44.7128063,15.9097138 Z M45.3303521,11.7044367 C45.8329601,11.2019501 45.8767773,10.5078865 45.8767773,10.1137667 C45.8767773,8.54825328 44.9443748,6.11 43.1369188,6.11 C42.5730956,6.11 41.9622335,6.3931728 41.6155628,6.83115533 C41.2476279,7.28461884 41.1374408,7.87289582 41.1374408,8.43859638 C41.1374408,9.89638802 41.9867195,12.314 43.8547463,12.314 C44.3998827,12.314 44.9862588,12.0488883 45.3303521,11.7044367 L45.3303521,11.7044367 Z" id="Fill-3"></path>
                        <path d="M32.6385653,15.698 C29.1598562,15.698 27.2985782,12.9765781 27.2985782,10.5125088 C27.2985782,7.63341779 29.6384705,5.17 32.9667209,5.17 C36.1840728,5.17 38.1990521,7.70052491 38.1990521,10.3574458 C38.1990521,12.9524717 36.2074198,15.698 32.6385653,15.698 L32.6385653,15.698 Z M35.3590945,13.9181471 C35.8901084,13.2124971 36.0189573,12.3317413 36.0189573,11.4732004 C36.0189573,9.53135598 35.097492,5.828 32.3740934,5.828 C31.649806,5.828 30.9203126,6.11222016 30.3945047,6.57611972 C29.5368131,7.34776112 29.3838863,8.31737655 29.3838863,9.26869735 C29.3838863,11.4470652 30.4563261,15.04 33.1179033,15.04 C33.9768964,15.04 34.8534599,14.6224904 35.3590945,13.9181471 L35.3590945,13.9181471 Z" id="Fill-4"></path>
                        <path d="M20.9794271,15.698 C17.4986199,15.698 15.6398104,12.9765781 15.6398104,10.5125088 C15.6398104,7.63341779 17.9813264,5.17 21.3096659,5.17 C24.5264119,5.17 26.5402844,7.70052491 26.5402844,10.3574458 C26.5402844,12.9524717 24.5504175,15.698 20.9794271,15.698 L20.9794271,15.698 Z M23.7013051,13.9181471 C24.2286731,13.2124971 24.3601896,12.3317413 24.3601896,11.4732004 C24.3601896,9.53135598 23.4356678,5.828 20.7135373,5.828 C19.9862903,5.828 19.2642518,6.11222016 18.7368838,6.57611972 C17.8774692,7.34776112 17.7251185,8.31737655 17.7251185,9.26869735 C17.7251185,11.4470652 18.802642,15.04 21.4609676,15.04 C22.3184289,15.04 23.1941203,14.6224904 23.7013051,13.9181471 L23.7013051,13.9181471 Z" id="Fill-5"></path>
                        <path d="M14.196681,15.0475584 L11.2501386,15.7210185 C10.0562809,15.9088853 8.98421884,16.074 7.84897935,16.074 C2.16561749,16.074 0,11.8986775 0,8.63083605 C0,4.64013006 3.06833804,0.94 8.3231356,0.94 C9.4349278,0.94 10.5043846,1.10316455 11.4787497,1.36838821 C13.023014,1.80132683 13.7453207,2.33502444 14.196681,2.64770233 L12.4850291,4.27024707 L11.7633737,4.43146145 L12.2779114,3.61303844 C11.5810059,2.93372785 10.2998722,1.67976599 7.86851876,1.67976599 C4.61781293,1.67976599 2.16561749,4.14608599 2.16561749,7.74675718 C2.16561749,11.6139521 4.96561436,15.2516766 9.45642115,15.2516766 C10.7759824,15.2516766 11.4553024,14.987103 12.0720963,14.740081 L12.0720963,11.4247853 L8.96077155,11.5918502 L10.6098974,10.7077713 L14.9763033,10.7077713 L14.4422262,11.2206671 C14.2982859,11.342878 14.2787465,11.3844817 14.2383651,11.5482963 C14.2168717,11.735513 14.196681,12.3309661 14.196681,12.5402848 L14.196681,15.0475584" id="Fill-6"></path>
                        <path d="M69.355679,14.0003387 L69.355679,19.552 L68.2464455,19.552 L68.2464455,5.42513743 L69.355679,5.42513743 L69.355679,7.03411803 C70.0782728,5.99419078 71.3986961,5.17 72.9322585,5.17 C75.6829236,5.17 77.535545,7.24404123 77.535545,10.5272401 C77.535545,13.7884778 75.6829236,15.9057955 72.9322585,15.9057955 C71.4844716,15.9057955 70.1874417,15.1636362 69.355679,14.0003387 L69.355679,14.0003387 Z M76.3981043,10.6118827 C76.3981043,8.11127576 75.0955756,6.204 72.7859842,6.204 C71.3517025,6.204 69.9800361,7.33191667 69.3838863,8.31558011 L69.3838863,12.8853397 C69.9800361,13.8709614 71.3517025,15.04 72.7859842,15.04 C75.0955756,15.04 76.3981043,13.116406 76.3981043,10.6118827 L76.3981043,10.6118827 Z" id="Fill-7"></path>
                        <polygon id="Fill-8" points="79.0521327 1.504 80.1895735 1.504 80.1895735 15.698 79.0521327 15.698"></polygon>
                        <path d="M92.5557603,18.574503 C92.7929592,18.6798112 93.197822,18.7444175 93.4545168,18.7444175 C94.1329706,18.7444175 94.6054189,18.4685488 95.0297775,17.4942863 L95.8388533,15.6717437 L91.4691943,5.358 L92.7065278,5.358 L96.4549206,14.2956303 L100.166921,5.358 L101.421801,5.358 L96.0922987,17.8360535 C95.5392678,19.1217181 94.6691052,19.74 93.4740126,19.74 C93.1152898,19.74 92.6421917,19.6766859 92.3653513,19.5920517 L92.5557603,18.574503" id="Fill-9"></path>
                        <path d="M89.4253555,15.6839952 C89.35085,15.3274014 89.2946442,15.0130273 89.2534702,14.7506158 C89.2194853,14.4888539 89.1998786,14.2212462 89.1998786,13.9490918 C88.8175482,14.5070409 88.2757501,14.9714571 87.5836341,15.3371444 C86.8908645,15.7054297 86.2327335,15.886 85.3301724,15.886 C84.2433084,15.886 83.3995674,15.6203409 82.7976421,15.0812283 C82.1976776,14.5427652 81.8957346,13.8133393 81.8957346,12.8903525 C81.8957346,11.9686648 82.3329637,11.2204025 83.2048076,10.6481637 C84.0766516,10.0733267 85.2033825,9.78753206 86.5980714,9.78753206 L89.1998786,9.78753206 L89.1998786,8.50990011 C89.1998786,7.77397891 88.9476059,7.19524476 88.4437141,6.77564626 C87.9378616,6.35539823 87.2280995,6.14300085 86.3078924,6.14300085 C85.4667656,6.14300085 84.784453,6.3372113 84.2648758,6.71523967 C83.7498735,7.10106243 83.4904117,7.57911892 83.4904117,8.15525494 L82.348649,8.15525494 L82.325121,8.10004461 C82.283947,7.32320281 82.6414422,6.64184241 83.4015281,6.05336526 C84.1583461,5.46553764 85.1497909,5.17 86.3699803,5.17 C87.5862483,5.17 88.570504,5.46099091 89.3122902,6.04167366 C90.0534229,6.61651061 90.4252964,7.44726367 90.4252964,8.53328331 L90.4252964,13.6061382 C90.4252964,13.9705264 90.4429424,14.3225734 90.4886914,14.665527 C90.5357474,15.0091301 90.6109064,15.3520836 90.7109005,15.6839952 L89.4253555,15.6839952 L89.4253555,15.6839952 Z M85.4643887,14.946 C86.4112356,14.946 87.0916595,14.7344674 87.7871023,14.3159722 C88.4779741,13.9000886 88.9481326,13.3575465 89.1943128,12.7007507 L89.1943128,10.716 L86.5823211,10.716 C85.5845403,10.716 84.7584979,10.9366729 84.108765,11.3819361 C83.457726,11.8258935 83.1279621,12.3632125 83.1279621,12.9880173 C83.1279621,13.5775666 83.3369214,14.0489449 83.7522281,14.4060695 C84.1688408,14.7671113 84.738255,14.946 85.4643887,14.946 L85.4643887,14.946 Z" id="Fill-10"></path>
                    </g>
                    <g id="Get-it-on" transform="translate(32.511848, 7.426000)" fill="#FFFFFF">
                        <path d="M0.00402569123,3.41323467 C0.00402569123,1.38846845 1.63443064,0.086015444 3.66182646,0.086015444 C5.02060607,0.086015444 5.90926492,0.684228135 6.46296271,1.41678265 L5.47048553,1.94752321 C5.09438892,1.46497703 4.43556689,1.08966332 3.66182646,1.08966332 C2.28280553,1.08966332 1.25833402,2.05355084 1.25833402,3.41323467 C1.25833402,4.75303832 2.28280553,5.73680602 3.66182646,5.73680602 C4.37288412,5.73680602 4.99971182,5.43800089 5.31312566,5.15847351 L5.31312566,4.16506694 L3.22304707,4.16506694 L3.22304707,3.17166036 L6.52564548,3.17166036 L6.52564548,5.57294514 C5.84658215,6.27718546 4.86389915,6.74949035 3.66182646,6.74949035 C1.63443064,6.74949035 0.00402569123,5.42896445 0.00402569123,3.41323467" id="Fill-1"></path>
                        <polyline id="Fill-2" points="8.10664422 6.65149807 8.10664422 0.184007722 12.9484529 0.184007722 12.9484529 1.1834794 9.34638552 1.1834794 9.34638552 2.850477 12.8743199 2.850477 12.8743199 3.84934294 9.34638552 3.84934294 9.34638552 5.65263213 12.9484529 5.65263213 12.9484529 6.65149807 8.10664422 6.65149807"></polyline>
                        <polyline id="Fill-3" points="16.2412088 6.65149807 16.2412088 1.1834794 14.1342019 1.1834794 14.1342019 0.184007722 19.5688851 0.184007722 19.5688851 1.1834794 17.4618782 1.1834794 17.4618782 6.65149807 16.2412088 6.65149807"></polyline>
                        <polygon id="Fill-4" points="23.9166316 0.184007722 25.1023806 0.184007722 25.1023806 6.65149807 23.9166316 6.65149807"></polygon>
                        <polyline id="Fill-5" points="28.4946008 6.65149807 28.4946008 1.1834794 26.3869421 1.1834794 26.3869421 0.184007722 31.8216253 0.184007722 31.8216253 1.1834794 29.7152701 1.1834794 29.7152701 6.65149807 28.4946008 6.65149807"></polyline>
                        <path d="M35.8729345,3.41805455 C35.8729345,1.49593313 37.3642264,0.086015444 39.4799183,0.086015444 C41.5837168,0.086015444 43.0862413,1.49593313 43.0862413,3.41805455 C43.0862413,5.33957266 41.5837168,6.74949035 39.4799183,6.74949035 C37.3642264,6.74949035 35.8729345,5.33957266 35.8729345,3.41805455 L35.8729345,3.41805455 Z M41.8016798,3.36875676 C41.8016798,2.04987521 40.8879408,1.06593822 39.4799161,1.06593822 C38.0613888,1.06593822 37.157496,2.04987521 37.157496,3.36875676 C37.157496,4.67748847 38.0613888,5.67157529 39.4799161,5.67157529 C40.8879408,5.67157529 41.8016798,4.67748847 41.8016798,3.36875676 L41.8016798,3.36875676 Z" id="Fill-6"></path>
                        <polyline id="Fill-7" points="49.3186329 6.65149807 45.6891988 2.02667005 45.6891988 6.65149807 44.4696152 6.65149807 44.4696152 0.184007722 45.7211217 0.184007722 49.2769377 4.66406379 49.2769377 0.184007722 50.4971729 0.184007722 50.4971729 6.65149807 49.3186329 6.65149807"></polyline>
                    </g>
                </g>
            </g>
        </g>
    </g>
</svg>