<?xml version="1.0" encoding="UTF-8" standalone="no"?>
<svg width="140px" height="47px" viewBox="0 0 140 47" version="1.1" xmlns="http://www.w3.org/2000/svg" xmlns:xlink="http://www.w3.org/1999/xlink">
    <!-- Generator: Sketch 3.8.3 (29802) - http://www.bohemiancoding.com/sketch -->
    <title>store_apple_wit</title>
    <desc>Created with Sketch.</desc>
    <defs>
        <rect id="path-1" x="0" y="0" width="140" height="47" rx="4"></rect>
        <mask id="mask-2" maskContentUnits="userSpaceOnUse" maskUnits="objectBoundingBox" x="0" y="0" width="140" height="47" fill="white">
            <use xlink:href="#path-1"></use>
        </mask>
    </defs>
    <g id="point" stroke="none" stroke-width="1" fill="none" fill-rule="evenodd">
        <g id="store_apple_wit">
            <g id="icon-appstore-white">
                <use id="Rectangle-3" stroke="#FFFFFF" mask="url(#mask-2)" stroke-width="4" xlink:href="#path-1"></use>
                <path d="M13.2924099,8 C12.0263469,8 11,9.1216205 11,10.5106012 L11,36.4893988 C11,37.8759656 12.0252116,39 13.2924099,39 L24.7075901,39 C25.9736531,39 27,37.8783795 27,36.4893988 L27,10.5106012 C27,9.12403444 25.9747884,8 24.7075901,8 L13.2924099,8 L13.2924099,8 Z M12.5,12.0655738 L12.5,34.9344262 L25.5,34.9344262 L25.5,12.0655738 L12.5,12.0655738 L12.5,12.0655738 Z M19,37.9836066 C19.5522847,37.9836066 20,37.5285517 20,36.9672131 C20,36.4058745 19.5522847,35.9508197 19,35.9508197 C18.4477153,35.9508197 18,36.4058745 18,36.9672131 C18,37.5285517 18.4477153,37.9836066 19,37.9836066 L19,37.9836066 Z M17,10.0327869 C17,10.3134562 17.171875,10.5409836 17.398159,10.5409836 L20.601841,10.5409836 C20.8217381,10.5409836 21,10.3052478 21,10.0327869 C21,9.75211759 20.828125,9.52459016 20.601841,9.52459016 L17.398159,9.52459016 C17.1782619,9.52459016 17,9.76032595 17,10.0327869 Z" id="iPhone-Vector" fill="#FFFFFF"></path>
                <path d="M34.18,16.62 C34.1,16.85 34.2,17 34.45,17 L34.79,17 C34.97,17 35.1,16.91 35.15,16.73 L35.77,14.97 L38.43,14.97 L39.06,16.73 C39.12,16.91 39.24,17 39.43,17 L39.77,17 C40.01,17 40.12,16.85 40.04,16.62 L37.72,10.21 C37.66,10.02 37.53,9.94 37.35,9.94 L36.87,9.94 C36.68,9.94 36.56,10.02 36.5,10.21 L34.18,16.62 Z M36.03,14.15 L36.82,11.91 C36.94,11.55 37.1,10.91 37.1,10.91 L37.12,10.91 C37.12,10.91 37.27,11.55 37.39,11.91 L38.17,14.15 L36.03,14.15 Z M42.07,16.74 C42.13,16.92 42.25,17 42.44,17 L43,17 C43.19,17 43.31,16.92 43.37,16.74 L45.01,12.32 C45.1,12.09 44.99,11.94 44.75,11.94 L44.41,11.94 C44.22,11.94 44.1,12.02 44.04,12.21 L42.9,15.36 C42.81,15.64 42.72,16.05 42.72,16.05 L42.7,16.05 C42.7,16.05 42.62,15.64 42.52,15.36 L41.38,12.21 C41.32,12.02 41.2,11.94 41.01,11.94 L40.67,11.94 C40.43,11.94 40.33,12.09 40.41,12.32 L42.07,16.74 Z M45.7,15.62 C45.7,16.57 46.51,17.12 47.4,17.12 C48.58,17.12 49.05,16.06 49.05,16.06 L49.07,16.06 C49.07,16.06 49.04,16.18 49.04,16.37 L49.04,16.67 C49.04,16.89 49.16,17 49.37,17 L49.62,17 C49.83,17 49.95,16.89 49.95,16.67 L49.95,13.8 C49.95,12.52 49.22,11.82 47.96,11.82 C47.19,11.82 46.62,12.08 46.32,12.25 C46.14,12.35 46.11,12.51 46.21,12.7 L46.29,12.84 C46.4,13.02 46.55,13.05 46.74,12.96 C46.97,12.83 47.38,12.64 47.88,12.64 C48.5,12.64 48.98,12.92 48.98,13.75 L48.98,13.88 L48.72,13.88 C47.67,13.88 45.7,14.05 45.7,15.62 L45.7,15.62 Z M46.68,15.54 C46.68,14.58 48.02,14.52 48.73,14.52 L48.99,14.52 L48.99,14.74 C48.99,15.49 48.47,16.35 47.62,16.35 C47,16.35 46.68,15.94 46.68,15.54 L46.68,15.54 Z M51.8,10.93 L52.14,10.93 C52.35,10.93 52.47,10.81 52.47,10.6 L52.47,10.27 C52.47,10.05 52.35,9.94 52.14,9.94 L51.8,9.94 C51.58,9.94 51.47,10.05 51.47,10.27 L51.47,10.6 C51.47,10.81 51.58,10.93 51.8,10.93 L51.8,10.93 Z M51.48,16.67 C51.48,16.89 51.6,17 51.81,17 L52.12,17 C52.34,17 52.45,16.89 52.45,16.67 L52.45,12.27 C52.45,12.05 52.34,11.94 52.12,11.94 L51.81,11.94 C51.6,11.94 51.48,12.05 51.48,12.27 L51.48,16.67 Z M54.05,15.62 C54.05,16.89 54.86,17.04 55.4,17.04 C55.65,17.04 55.74,16.91 55.74,16.7 L55.74,16.46 C55.74,16.27 55.63,16.19 55.48,16.17 C55.27,16.15 55.02,16.07 55.02,15.5 L55.02,10.27 C55.02,10.05 54.9,9.94 54.69,9.94 L54.38,9.94 C54.16,9.94 54.05,10.05 54.05,10.27 L54.05,15.62 Z M56.4599999,15.62 C56.4599999,16.57 57.2699999,17.12 58.1599999,17.12 C59.3399999,17.12 59.8099999,16.06 59.8099999,16.06 L59.8299999,16.06 C59.8299999,16.06 59.7999999,16.18 59.7999999,16.37 L59.7999999,16.67 C59.7999999,16.89 59.9199999,17 60.1299999,17 L60.3799999,17 C60.5899999,17 60.7099999,16.89 60.7099999,16.67 L60.7099999,13.8 C60.7099999,12.52 59.9799999,11.82 58.7199999,11.82 C57.9499999,11.82 57.3799999,12.08 57.0799999,12.25 C56.8999999,12.35 56.8699999,12.51 56.9699999,12.7 L57.0499999,12.84 C57.1599999,13.02 57.3099999,13.05 57.4999999,12.96 C57.7299999,12.83 58.1399999,12.64 58.6399999,12.64 C59.2599999,12.64 59.7399999,12.92 59.7399999,13.75 L59.7399999,13.88 L59.4799999,13.88 C58.4299999,13.88 56.4599999,14.05 56.4599999,15.62 L56.4599999,15.62 Z M57.4399999,15.54 C57.4399999,14.58 58.7799999,14.52 59.4899999,14.52 L59.7499999,14.52 L59.7499999,14.74 C59.7499999,15.49 59.2299999,16.35 58.3799999,16.35 C57.7599999,16.35 57.4399999,15.94 57.4399999,15.54 L57.4399999,15.54 Z M62.2499999,16.67 C62.2499999,16.89 62.3599999,17 62.5799999,17 L62.8299999,17 C63.0399999,17 63.1599999,16.89 63.1599999,16.71 L63.1599999,16.46 C63.1599999,16.28 63.1299999,16.16 63.1299999,16.16 L63.1499999,16.16 C63.1499999,16.16 63.5799999,17.12 64.7699999,17.12 C66.0899999,17.12 67.0599999,16.08 67.0599999,14.46 C67.0599999,12.9 66.1899999,11.82 64.8499999,11.82 C63.6499999,11.82 63.1999999,12.75 63.1999999,12.75 L63.1799999,12.75 C63.1799999,12.75 63.2099999,12.57 63.2099999,12.32 L63.2099999,10.27 C63.2099999,10.05 63.0999999,9.94 62.8899999,9.94 L62.5799999,9.94 C62.3599999,9.94 62.2499999,10.05 62.2499999,10.27 L62.2499999,16.67 Z M63.1899999,14.47 C63.1899999,13.21 63.8899999,12.67 64.6499999,12.67 C65.4899999,12.67 66.0799999,13.38 66.0799999,14.48 C66.0799999,15.63 65.4199999,16.28 64.6099999,16.28 C63.6599999,16.28 63.1899999,15.4 63.1899999,14.47 L63.1899999,14.47 Z M68.3599999,15.62 C68.3599999,16.89 69.1699999,17.04 69.7099999,17.04 C69.9599999,17.04 70.0499999,16.91 70.0499999,16.7 L70.0499999,16.46 C70.0499999,16.27 69.9399999,16.19 69.7899999,16.17 C69.5799999,16.15 69.3299999,16.07 69.3299999,15.5 L69.3299999,10.27 C69.3299999,10.05 69.2099999,9.94 68.9999999,9.94 L68.6899999,9.94 C68.4699999,9.94 68.3599999,10.05 68.3599999,10.27 L68.3599999,15.62 Z M70.8599999,14.47 C70.8599999,15.97 71.9499999,17.12 73.5399999,17.12 C74.3499999,17.12 74.9499999,16.79 75.2499999,16.58 C75.4199999,16.48 75.4499999,16.31 75.3499999,16.14 L75.2599999,15.99 C75.1499999,15.8 74.9999999,15.78 74.8099999,15.88 C74.5799999,16.05 74.1499999,16.28 73.5999999,16.28 C72.6999999,16.28 71.9099999,15.67 71.8499999,14.57 L75.2299999,14.57 C75.4299999,14.57 75.5699999,14.41 75.5699999,14.23 C75.5699999,12.82 74.7899999,11.82 73.3899999,11.82 C71.9499999,11.82 70.8599999,12.86 70.8599999,14.47 L70.8599999,14.47 Z M71.8899999,13.93 C72.0299999,13.08 72.6299999,12.58 73.3699999,12.58 C74.0399999,12.58 74.5699999,13.04 74.5999999,13.93 L71.8899999,13.93 Z M79.1999999,14.46 C79.1999999,16 80.4099999,17.12 81.9199999,17.12 C83.4299999,17.12 84.6499999,16 84.6499999,14.46 C84.6499999,12.93 83.4299999,11.82 81.9199999,11.82 C80.4099999,11.82 79.1999999,12.93 79.1999999,14.46 L79.1999999,14.46 Z M80.1799999,14.46 C80.1799999,13.41 80.9699999,12.66 81.9199999,12.66 C82.8799999,12.66 83.6599999,13.41 83.6599999,14.46 C83.6599999,15.52 82.8799999,16.28 81.9199999,16.28 C80.9699999,16.28 80.1799999,15.52 80.1799999,14.46 L80.1799999,14.46 Z M85.9199999,16.67 C85.9199999,16.89 86.0399999,17 86.2499999,17 L86.5599999,17 C86.7799999,17 86.8899999,16.89 86.8899999,16.67 L86.8899999,14.58 C86.8899999,13.53 87.5999999,12.71 88.5799999,12.71 C89.3899999,12.71 89.5299999,13.27 89.5299999,13.98 L89.5299999,16.67 C89.5299999,16.89 89.6499999,17 89.8599999,17 L90.1699999,17 C90.3899999,17 90.4999999,16.89 90.4999999,16.67 L90.4999999,13.76 C90.4999999,12.47 89.9599999,11.82 88.7699999,11.82 C87.6599999,11.82 87.0499999,12.57 86.8499999,13.01 L86.8299999,13.01 C86.8299999,13.01 86.8599999,12.87 86.8599999,12.72 L86.8599999,12.27 C86.8599999,12.05 86.7499999,11.94 86.5299999,11.94 L86.2499999,11.94 C86.0399999,11.94 85.9199999,12.05 85.9199999,12.27 L85.9199999,16.67 Z M94.9699998,15.18 C94.9699998,16.46 95.8499998,17.04 96.8499998,17.04 C97.1199998,17.04 97.2499998,16.94 97.2499998,16.71 L97.2499998,16.5 C97.2499998,16.27 97.1599998,16.19 96.8999998,16.17 C96.5299998,16.14 95.9399998,15.99 95.9399998,15.03 L95.9399998,12.78 L96.8299998,12.78 C97.0399998,12.78 97.1499998,12.66 97.1499998,12.45 L97.1499998,12.32 C97.1499998,12.11 97.0399998,11.99 96.8199998,11.99 L95.9399998,11.99 L95.9399998,10.88 C95.9399998,10.66 95.8299998,10.55 95.6099998,10.55 L95.3199998,10.55 C95.1099998,10.55 94.9899998,10.66 94.9899998,10.88 L94.9899998,11.99 L94.6299998,11.99 C94.4099998,11.99 94.2999998,12.11 94.2999998,12.32 L94.2999998,12.45 C94.2999998,12.66 94.4099998,12.78 94.6199998,12.78 L94.9699998,12.78 L94.9699998,15.18 Z M98.3599998,16.67 C98.3599998,16.89 98.4699998,17 98.6899998,17 L98.9999998,17 C99.2099998,17 99.3199998,16.89 99.3199998,16.67 L99.3199998,14.6 C99.3199998,13.51 100.04,12.71 101.01,12.71 C101.82,12.71 101.97,13.27 101.97,13.98 L101.97,16.67 C101.97,16.89 102.08,17 102.3,17 L102.61,17 C102.82,17 102.94,16.89 102.94,16.67 L102.94,13.76 C102.94,12.47 102.39,11.82 101.2,11.82 C100.19,11.82 99.5299998,12.49 99.3099998,12.98 L99.2899998,12.98 C99.2899998,12.98 99.3199998,12.8 99.3199998,12.56 L99.3199998,10.27 C99.3199998,10.05 99.2099998,9.94 98.9999998,9.94 L98.6899998,9.94 C98.4699998,9.94 98.3599998,10.05 98.3599998,10.27 L98.3599998,16.67 Z M104.15,14.47 C104.15,15.97 105.24,17.12 106.83,17.12 C107.64,17.12 108.24,16.79 108.54,16.58 C108.71,16.48 108.74,16.31 108.64,16.14 L108.55,15.99 C108.44,15.8 108.29,15.78 108.1,15.88 C107.87,16.05 107.44,16.28 106.89,16.28 C105.99,16.28 105.2,15.67 105.14,14.57 L108.52,14.57 C108.72,14.57 108.86,14.41 108.86,14.23 C108.86,12.82 108.08,11.82 106.68,11.82 C105.24,11.82 104.15,12.86 104.15,14.47 L104.15,14.47 Z M105.18,13.93 C105.32,13.08 105.92,12.58 106.66,12.58 C107.33,12.58 107.86,13.04 107.89,13.93 L105.18,13.93 Z" id="Available-on-the" fill="#FFFFFF"></path>
                <path d="M34.36,35.24 C34.2,35.7 34.4,36 34.9,36 L35.58,36 C35.94,36 36.2,35.82 36.3,35.46 L37.54,31.94 L42.86,31.94 L44.12,35.46 C44.24,35.82 44.48,36 44.86,36 L45.54,36 C46.02,36 46.24,35.7 46.08,35.24 L41.44,22.42 C41.32,22.04 41.06,21.88 40.7,21.88 L39.74,21.88 C39.36,21.88 39.12,22.04 39,22.42 L34.36,35.24 Z M38.06,30.3 L39.64,25.82 C39.88,25.1 40.2,23.82 40.2,23.82 L40.24,23.82 C40.24,23.82 40.54,25.1 40.78,25.82 L42.34,30.3 L38.06,30.3 Z M47.1318528,39.34 C47.1318528,39.78 47.3518528,40 47.7918528,40 L48.4118528,40 C48.8318528,40 49.0518528,39.78 49.0518528,39.34 L49.0518528,35.32 C49.0518528,34.8 48.9918528,34.44 48.9918528,34.44 L49.0318528,34.44 C49.0318528,34.44 49.8718528,36.24 52.1718528,36.24 C54.8118528,36.24 56.7518528,34.16 56.7518528,30.94 C56.7518528,27.8 55.0318528,25.64 52.3118528,25.64 C49.7718528,25.64 48.9118528,27.58 48.9118528,27.58 L48.8718528,27.58 C48.8718528,27.58 48.9118528,27.34 48.9118528,27.04 L48.9118528,26.44 C48.9118528,26.1 48.6918528,25.88 48.2518528,25.88 L47.7918528,25.88 C47.3518528,25.88 47.1318528,26.1 47.1318528,26.54 L47.1318528,39.34 Z M49.0118528,30.98 C49.0118528,28.4 50.4118528,27.34 51.9318528,27.34 C53.6118528,27.34 54.7918528,28.76 54.7918528,30.96 C54.7918528,33.26 53.4718528,34.56 51.8718528,34.56 C50.0118528,34.56 49.0118528,32.78 49.0118528,30.98 L49.0118528,30.98 Z M58.2637055,39.34 C58.2637055,39.78 58.4837055,40 58.9237055,40 L59.5437055,40 C59.9637055,40 60.1837055,39.78 60.1837055,39.34 L60.1837055,35.32 C60.1837055,34.8 60.1237055,34.44 60.1237055,34.44 L60.1637055,34.44 C60.1637055,34.44 61.0037055,36.24 63.3037055,36.24 C65.9437055,36.24 67.8837055,34.16 67.8837055,30.94 C67.8837055,27.8 66.1637055,25.64 63.4437055,25.64 C60.9037055,25.64 60.0437055,27.58 60.0437055,27.58 L60.0037055,27.58 C60.0037055,27.58 60.0437055,27.34 60.0437055,27.04 L60.0437055,26.44 C60.0437055,26.1 59.8237055,25.88 59.3837055,25.88 L58.9237055,25.88 C58.4837055,25.88 58.2637055,26.1 58.2637055,26.54 L58.2637055,39.34 Z M60.1437055,30.98 C60.1437055,28.4 61.5437055,27.34 63.0637055,27.34 C64.7437055,27.34 65.9237055,28.76 65.9237055,30.96 C65.9237055,33.26 64.6037055,34.56 63.0037055,34.56 C61.1437055,34.56 60.1437055,32.78 60.1437055,30.98 L60.1437055,30.98 Z M73.4274111,34.78 C74.0674111,35.3 75.6274111,36.24 77.6674111,36.24 C80.4874111,36.24 82.1474111,34.44 82.1474111,32.22 C82.1474111,27.68 75.3474111,28.5 75.3474111,25.46 C75.3474111,24.24 76.4274111,23.48 77.8874111,23.48 C79.0874111,23.48 79.9474111,23.98 80.4874111,24.3 C80.8274111,24.5 81.1474111,24.54 81.3874111,24.12 L81.6674111,23.62 C81.8474111,23.26 81.8074111,22.96 81.4674111,22.72 C80.9274111,22.3 79.6074111,21.64 77.9274111,21.64 C75.3474111,21.64 73.3474111,23.18 73.3474111,25.56 C73.3474111,29.96 80.1474111,29.26 80.1474111,32.38 C80.1474111,33.6 79.1674111,34.4 77.6674111,34.4 C76.1674111,34.4 75.0874111,33.62 74.5874111,33.26 C74.2074111,33.02 73.9274111,33.06 73.6874111,33.38 L73.3474111,33.86 C73.0474111,34.26 73.1674111,34.54 73.4274111,34.78 L73.4274111,34.78 Z M84.0592639,32.36 C84.0592639,34.92 85.8192639,36.08 87.8192639,36.08 C88.3592639,36.08 88.6192639,35.88 88.6192639,35.42 L88.6192639,35 C88.6192639,34.54 88.4392639,34.38 87.9192639,34.34 C87.1792639,34.28 85.9992639,33.98 85.9992639,32.06 L85.9992639,27.56 L87.7792639,27.56 C88.1992639,27.56 88.4192639,27.32 88.4192639,26.9 L88.4192639,26.64 C88.4192639,26.22 88.1992639,25.98 87.7592639,25.98 L85.9992639,25.98 L85.9992639,23.76 C85.9992639,23.32 85.7792639,23.1 85.3392639,23.1 L84.7592639,23.1 C84.3392639,23.1 84.0992639,23.32 84.0992639,23.76 L84.0992639,25.98 L83.3792639,25.98 C82.9392639,25.98 82.7192639,26.22 82.7192639,26.64 L82.7192639,26.9 C82.7192639,27.32 82.9392639,27.56 83.3592639,27.56 L84.0592639,27.56 L84.0592639,32.36 Z M88.9511166,30.92 C88.9511166,34 91.3711166,36.24 94.3911166,36.24 C97.4111166,36.24 99.8511166,34 99.8511166,30.92 C99.8511166,27.86 97.4111166,25.64 94.3911166,25.64 C91.3711166,25.64 88.9511166,27.86 88.9511166,30.92 L88.9511166,30.92 Z M90.9111166,30.92 C90.9111166,28.82 92.4911166,27.32 94.3911166,27.32 C96.3111166,27.32 97.8711166,28.82 97.8711166,30.92 C97.8711166,33.04 96.3111166,34.56 94.3911166,34.56 C92.4911166,34.56 90.9111166,33.04 90.9111166,30.92 L90.9111166,30.92 Z M101.282969,35.34 C101.282969,35.78 101.522969,36 101.942969,36 L102.562969,36 C103.002969,36 103.222969,35.78 103.222969,35.34 L103.222969,31.82 C103.222969,29.82 104.182969,27.68 106.162969,27.68 C106.622969,27.68 106.882969,27.46 106.882969,27.02 L106.882969,26.46 C106.882969,26.02 106.702969,25.8 106.242969,25.8 C104.722969,25.8 103.582969,27.12 103.142969,28.46 L103.102969,28.46 C103.102969,28.46 103.162969,28.12 103.162969,27.7 L103.162969,26.54 C103.162969,26.1 102.942969,25.88 102.502969,25.88 L101.942969,25.88 C101.522969,25.88 101.282969,26.1 101.282969,26.54 L101.282969,35.34 Z M106.734822,30.94 C106.734822,33.94 108.914822,36.24 112.094822,36.24 C113.714822,36.24 114.914822,35.58 115.514822,35.16 C115.854822,34.96 115.914822,34.62 115.714822,34.28 L115.534822,33.98 C115.314822,33.6 115.014822,33.56 114.634822,33.76 C114.174822,34.1 113.314822,34.56 112.214822,34.56 C110.414822,34.56 108.834822,33.34 108.714822,31.14 L115.474822,31.14 C115.874822,31.14 116.154822,30.82 116.154822,30.46 C116.154822,27.64 114.594822,25.64 111.794822,25.64 C108.914822,25.64 106.734822,27.72 106.734822,30.94 L106.734822,30.94 Z M108.794822,29.86 C109.074822,28.16 110.274822,27.16 111.754822,27.16 C113.094822,27.16 114.154822,28.08 114.214822,29.86 L108.794822,29.86 Z" id="App-Store" fill="#FFFFFF"></path>
            </g>
        </g>
    </g>
</svg>