<?xml version="1.0" encoding="UTF-8" standalone="no"?>
<svg width="140px" height="47px" viewBox="0 0 140 47" version="1.1" xmlns="http://www.w3.org/2000/svg" xmlns:xlink="http://www.w3.org/1999/xlink">
    <!-- Generator: Sketch 3.8.1 (29687) - http://www.bohemiancoding.com/sketch -->
    <title>store_apple_wit</title>
    <desc>Created with Sketch.</desc>
    <defs></defs>
    <g id="point" stroke="none" stroke-width="1" fill="none" fill-rule="evenodd">
        <g id="store_apple_wit">
            <g id="Group-8">
                <g id="App-Store">
                    <rect id="background" fill="#000000" x="0" y="0" width="140" height="47" rx="4"></rect>
                    <g id="icon" transform="translate(12.322275, 8.272000)" fill="#FFFFFF">
                        <path d="M18.326139,14.1520976 C18.2956356,10.7901527 21.1019467,9.15455548 21.2302712,9.07840841 C19.6409399,6.78043611 17.1775289,6.46645986 16.311864,6.44142521 C14.2428933,6.22550135 12.2359812,7.66916621 11.1820368,7.66916621 C10.1070556,7.66916621 8.48406536,6.46228742 6.73485424,6.49775318 C4.4839151,6.53217582 2.37812997,7.82458966 1.22320886,9.83153415 C-1.16026221,13.9236564 0.617348607,19.9371881 2.90089481,23.2448913 C4.04319384,24.865885 5.37797971,26.6735954 7.12508715,26.6099656 C8.83432832,26.5411203 9.47279564,25.5293032 11.5354553,25.5293032 C13.5791818,25.5293032 14.178731,26.6099656 15.9605492,26.5682412 C17.7949594,26.5411203 18.9498805,24.942032 20.0522096,23.3064349 C21.3722697,21.4517845 21.9023974,19.6211257 21.9234343,19.5272457 C21.8813606,19.5136853 18.3619016,18.1816333 18.326139,14.1520976" id="Fill-2"></path>
                        <path d="M14.9602487,4.26549683 C15.8795575,3.12537711 16.5085582,1.57427189 16.3339527,0.000218226897 C15.0033742,0.0586324117 13.3393621,0.912939865 12.3811352,2.02802493 C11.5333516,3.01063497 10.7760263,4.62119749 10.9716687,6.13579385 C12.4663343,6.24636356 14.0009699,5.38788367 14.9602487,4.26549683" id="Fill-3"></path>
                    </g>
                    <g transform="translate(43.507109, 20.492000)" fill="#FFFFFF">
                        <path d="M11.8984799,14.157352 L9.50974964,14.157352 L8.20125979,10.0798333 L3.65310051,10.0798333 L2.40666925,14.157352 L0.0810494194,14.157352 L4.58818691,0.275638227 L7.37135746,0.275638227 L11.8984799,14.157352 L11.8984799,14.157352 Z M7.80681952,8.36913216 L6.62349871,4.74536648 C6.49832966,4.37401916 6.26271734,3.50197883 5.91771358,2.12924548 L5.87563995,2.12924548 C5.73679698,2.719646 5.51485859,3.59168633 5.21087662,4.74536648 L4.04754078,8.36913216 L7.80681952,8.36913216 L7.80681952,8.36913216 Z" id="Fill-4"></path>
                        <path d="M23.4666242,9.02942107 C23.4666242,10.7317773 23.0006587,12.0773898 22.067676,13.0652154 C21.2325145,13.9445575 20.1943477,14.383707 18.9563312,14.383707 C17.6194416,14.383707 16.6580592,13.9111779 16.0742876,12.9629905 L16.0742876,18.2150516 L13.8317632,18.2150516 L13.8317632,7.43763453 C13.8317632,6.36844633 13.8033635,5.27213725 13.7486678,4.14766419 L15.7208691,4.14766419 L15.8460381,5.73527829 L15.8881118,5.73527829 C16.6359705,4.53883061 17.7709067,3.94112832 19.293972,3.94112832 C20.4846557,3.94112832 21.4786452,4.40739869 22.2738368,5.34098254 C23.0679765,6.27665261 23.4666242,7.50543671 23.4666242,9.02942107 L23.4666242,9.02942107 Z M21.1820261,9.11078368 C21.1820261,8.13651853 20.9611396,7.33332349 20.5172628,6.70119856 C20.0323642,6.04299587 19.3812748,5.71232986 18.5650464,5.71232986 C18.0117782,5.71232986 17.5089983,5.8959173 17.0598623,6.25891973 C16.6096745,6.62296527 16.3151591,7.09966675 16.177368,7.69111037 C16.1079465,7.96544841 16.0732357,8.18971716 16.0732357,8.36704594 L16.0732357,10.0381089 C16.0732357,10.7641137 16.2983297,11.3785058 16.7485175,11.881285 C17.1987053,12.381978 17.7835288,12.6333676 18.5029878,12.6333676 C19.3476159,12.6333676 20.0050164,12.3089603 20.4751892,11.6653612 C20.9464138,11.0196758 21.1820261,10.1684977 21.1820261,9.11078368 L21.1820261,9.11078368 Z" id="Fill-5"></path>
                        <path d="M35.0757902,9.02942107 C35.0757902,10.7317773 34.6098248,12.0773898 33.6768421,13.0652154 C32.8406287,13.9445575 31.8035137,14.383707 30.5644454,14.383707 C29.2286076,14.383707 28.2672252,13.9111779 27.6824018,12.9629905 L27.6824018,18.2150516 L25.4398774,18.2150516 L25.4398774,7.43763453 C25.4398774,6.36844633 25.4114777,5.27213725 25.356782,4.14766419 L27.3289833,4.14766419 L27.4541523,5.73527829 L27.496226,5.73527829 C28.2430329,4.53883061 29.377969,3.94112832 30.9020862,3.94112832 C32.0917181,3.94112832 33.0867594,4.40739869 33.8830028,5.34098254 C34.6760907,6.27665261 35.0757902,7.50543671 35.0757902,9.02942107 L35.0757902,9.02942107 Z M32.7901403,9.11078368 C32.7901403,8.13651853 32.5682019,7.33332349 32.1243252,6.70119856 C31.6404784,6.04299587 30.9904409,5.71232986 30.1742125,5.71232986 C29.6209442,5.71232986 29.1181644,5.8959173 28.6669247,6.25891973 C28.2177887,6.62296527 27.9232733,7.09966675 27.7854822,7.69111037 C27.7171125,7.96544841 27.6802981,8.18971716 27.6802981,8.36704594 L27.6802981,10.0381089 C27.6802981,10.7641137 27.9064439,11.3785058 28.354528,11.881285 C28.8047158,12.3809349 29.3895393,12.6333676 30.111102,12.6333676 C30.956782,12.6333676 31.6141824,12.3089603 32.0833034,11.6653612 C32.554528,11.0196758 32.7901403,10.1684977 32.7901403,9.11078368 L32.7901403,9.11078368 Z" id="Fill-6"></path>
                        <path d="M48.0555047,10.2644638 C48.0555047,11.4452649 47.6400276,12.4059696 46.8111771,13.1476211 C45.9002831,13.9570748 44.6286076,14.3628448 42.9982545,14.3628448 C41.4920186,14.3628448 40.2845055,14.0749463 39.3736114,13.4981062 L39.8921689,11.6444989 C40.87564,12.221339 41.9558804,12.5102806 43.1318383,12.5102806 C43.9775182,12.5102806 44.6349187,12.3204345 45.1040397,11.9438716 C45.5752643,11.5652226 45.8119285,11.0614002 45.8119285,10.4313615 C45.8119285,9.86703875 45.6162861,9.39346661 45.2292087,9.00855886 C44.8410795,8.62573733 44.1994566,8.26690733 43.299081,7.93937065 C40.8482921,7.03290768 39.6218458,5.70607119 39.6218458,3.96303364 C39.6218458,2.82395704 40.0552042,1.8914163 40.9187654,1.1622821 C41.7833785,0.434191014 42.9298849,0.0701454696 44.3561809,0.0701454696 C45.62996,0.0701454696 46.6912673,0.290241773 47.5337917,0.72939127 L46.9710569,2.54231722 C46.177969,2.11672816 45.2828526,1.90393363 44.2815002,1.90393363 C43.490516,1.90393363 42.8688781,2.09690906 42.4260532,2.4807737 C42.0526497,2.82395704 41.8622665,3.24224433 41.8622665,3.7387649 C41.8622665,4.28639788 42.0778939,4.74119403 42.5080968,5.0968947 C42.8804484,5.4265176 43.5599375,5.78430448 44.5423567,6.16816912 C45.7477662,6.65008615 46.6323642,7.21127956 47.2003582,7.85592182 C47.7715077,8.50056407 48.0555047,9.30480222 48.0555047,10.2644638" id="Fill-7"></path>
                        <path d="M55.4888631,5.8166409 L53.0170374,5.8166409 L53.0170374,10.6764925 C53.0170374,11.9125783 53.4524995,12.5290566 54.3255273,12.5290566 C54.7262786,12.5290566 55.0586602,12.4956771 55.3216204,12.4257887 L55.383679,14.1145845 C54.9419059,14.2783528 54.360238,14.3607585 53.6407789,14.3607585 C52.7540772,14.3607585 52.0630179,14.091636 51.5623417,13.5565204 C51.0637692,13.0203616 50.8144829,12.1222435 50.8144829,10.8579937 L50.8144829,5.81246846 L49.3429578,5.81246846 L49.3429578,4.14349175 L50.8144829,4.14349175 L50.8144829,2.3107467 L53.0170374,1.6515009 L53.0170374,4.14349175 L55.4888631,4.14349175 L55.4888631,5.8166409" id="Fill-8"></path>
                        <path d="M66.6194416,9.07010237 C66.6194416,10.6086903 66.1766167,11.871897 65.2899149,12.8597226 C64.3632433,13.8757122 63.1304859,14.383707 61.5937466,14.383707 C60.1106512,14.383707 58.9315378,13.8965744 58.0521989,12.9223092 C57.1728601,11.9480441 56.7331907,10.71926 56.7331907,9.23700005 C56.7331907,7.68589482 57.1886377,6.4153863 58.0932207,5.42756071 C58.9999074,4.43973512 60.2221463,3.94425766 61.7588856,3.94425766 C63.2409292,3.94425766 64.4295092,4.43347645 65.3309367,5.4066985 C66.1913424,6.35279967 66.6194416,7.57219578 66.6194416,9.07010237 L66.6194416,9.07010237 Z M64.2948736,9.12121479 C64.2948736,8.20432071 64.0950239,7.41781543 63.6942726,6.75961274 C63.2240998,5.96476258 62.5498699,5.56838062 61.6789457,5.56838062 C60.7817256,5.56838062 60.0906662,5.96476258 59.6225971,6.75961274 C59.2197421,7.41781543 59.0209442,8.21788114 59.0209442,9.1629392 C59.0209442,10.0808764 59.2197421,10.8694679 59.6225971,11.5245412 C60.1074957,12.3204345 60.7838293,12.7178596 61.6610644,12.7178596 C62.5172628,12.7178596 63.189389,12.3110465 63.6763913,11.5057653 C64.087661,10.8319159 64.2948736,10.0401951 64.2948736,9.12121479 L64.2948736,9.12121479 Z" id="Fill-9"></path>
                        <path d="M73.9118533,6.10349627 C73.6899149,6.06281497 73.4521989,6.04299587 73.2050164,6.04299587 C72.4161358,6.04299587 71.8060682,6.3361099 71.3769172,6.92859663 C71.0035137,7.45015186 70.8173379,8.10939766 70.8173379,8.90529092 L70.8173379,14.157352 L68.5748135,14.157352 L68.5748135,7.29994395 C68.5748135,6.14730691 68.5527249,5.09480847 68.5095994,4.1487073 L70.4628676,4.1487073 L70.5449112,6.06385808 L70.6069698,6.06385808 C70.8446858,5.40565539 71.2170374,4.87471217 71.728232,4.4783302 C72.2289082,4.11950021 72.7674506,3.94112832 73.3491185,3.94112832 C73.5563312,3.94112832 73.7435588,3.95677498 73.9097496,3.98180963 L73.9118533,6.10349627" id="Fill-10"></path>
                        <path d="M83.9411546,8.67893596 C83.9411546,9.07740415 83.9148586,9.41328571 83.859111,9.68762376 L77.1325896,9.68762376 C77.156782,10.6764925 77.4839044,11.4337906 78.107646,11.9553459 C78.6745881,12.4205731 79.4087729,12.6542299 80.3080968,12.6542299 C81.3041899,12.6542299 82.2129803,12.4977633 83.0302605,12.1806577 L83.3815753,13.7244612 C82.426504,14.1364898 81.2978789,14.3430257 79.9978037,14.3430257 C78.4326647,14.3430257 77.2041148,13.8861433 76.3100502,12.9744648 C75.4191411,12.0617431 74.9710569,10.8340021 74.9710569,9.29854356 C74.9710569,7.79020586 75.3854822,6.53325778 76.21854,5.53082864 C77.0894641,4.46059733 78.2664739,3.92548167 79.7474656,3.92548167 C81.2021614,3.92548167 82.3034386,4.46059733 83.0502455,5.53082864 C83.6434837,6.37887743 83.9411546,7.43033276 83.9411546,8.67893596 L83.9411546,8.67893596 Z M81.8027624,8.10209588 C81.81854,7.44180697 81.6712823,6.87435489 81.3673004,6.39243787 C80.9791711,5.77283026 80.3817256,5.46406957 79.5812748,5.46406957 C78.84709,5.46406957 78.2506963,5.76552849 77.7963011,6.37053255 C77.4228977,6.85140646 77.2009593,7.43033276 77.1325896,8.10000966 L81.8027624,8.10209588 L81.8027624,8.10209588 Z" id="Fill-11"></path>
                    </g>
                    <g id="Available-on-the" transform="translate(44.360190, 8.554000)" fill="#FFFFFF">
                        <path d="M5.87244669,7.24530319 L4.6975406,7.24530319 L4.05486592,5.24148802 L1.81970439,5.24148802 L1.20648125,7.24530319 L0.0631303834,7.24530319 L2.27830694,0.422317776 L3.64569988,0.422317776 L5.87244669,7.24530319 L5.87244669,7.24530319 Z M3.86132723,4.40074101 L3.27965931,2.61910837 C3.21865255,2.43656404 3.10610559,2.01201809 2.93255187,1.3339963 L2.91151506,1.3339963 C2.83998989,1.62711034 2.73796134,2.0526994 2.58439259,2.61910837 L2.01324308,4.40074101 L3.86132723,4.40074101 L3.86132723,4.40074101 Z" id="Fill-12"></path>
                        <path d="M11.4114399,2.32599434 L9.5328524,7.24530319 L8.4610267,7.24530319 L6.64344594,2.32599434 L7.82781859,2.32599434 L8.67560221,4.92751178 C8.81865255,5.36248884 8.94066607,5.77764679 9.03217621,6.17194254 L9.06267959,6.17194254 C9.14472317,5.8183281 9.26673669,5.40317014 9.4192536,4.92751178 L10.2565188,2.32599434 L11.4114399,2.32599434" id="Fill-13"></path>
                        <path d="M15.4105383,7.24530319 L15.3284948,6.67889421 L15.2979914,6.67889421 C14.9614024,7.13473348 14.4712446,7.356916 13.8485549,7.356916 C12.9608013,7.356916 12.3275932,6.73939462 12.3275932,5.90907871 C12.3275932,4.69489815 13.3889005,4.06694566 15.2264662,4.06694566 L15.2264662,3.97619506 C15.2264662,3.32842347 14.8793588,3.00401612 14.1956623,3.00401612 C13.7055045,3.00401612 13.2763535,3.12606005 12.8997945,3.36910478 L12.6757525,2.65040168 C13.1354069,2.36667564 13.7065564,2.22481262 14.3807863,2.22481262 C15.676654,2.22481262 16.330899,2.90283441 16.330899,4.2599211 L16.330899,6.07180394 C16.330899,6.56832451 16.3519358,6.95323226 16.4024241,7.2463463 L15.4105383,7.24530319 L15.4105383,7.24530319 Z M15.2569696,4.79503675 C14.0315752,4.79503675 13.4194039,5.0891939 13.4194039,5.78703479 C13.4194039,6.30337446 13.7360079,6.55580718 14.1746255,6.55580718 C14.7363084,6.55580718 15.2569696,6.13126123 15.2569696,5.55442116 L15.2569696,4.79503675 L15.2569696,4.79503675 Z" id="Fill-14"></path>
                        <path d="M18.7858952,1.51549752 C18.4188028,1.51549752 18.1327021,1.23177148 18.1327021,0.857294831 C18.1327021,0.482818182 18.4282694,0.209523246 18.806932,0.209523246 C19.1845429,0.209523246 19.4906285,0.482818182 19.4801101,0.857294831 C19.4801101,1.25263369 19.1950613,1.51549752 18.7858952,1.51549752 L18.7858952,1.51549752 Z M18.2557675,2.32599434 L19.3580966,2.32599434 L19.3580966,7.24530319 L18.2557675,7.24530319 L18.2557675,2.32599434 Z" id="Fill-15"></path>
                        <polygon id="Fill-16" points="21.316624 0.0687033358 22.4189531 0.0687033358 22.4189531 7.24530319 21.316624 7.24530319"></polygon>
                        <path d="M27.1038516,7.24530319 L27.0207562,6.67889421 L26.9913047,6.67889421 C26.6547157,7.13473348 26.1645579,7.356916 25.5418682,7.356916 C24.6541146,7.356916 24.0209065,6.73939462 24.0209065,5.90907871 C24.0209065,4.69489815 25.0822138,4.06694566 26.9197795,4.06694566 L26.9197795,3.97619506 C26.9197795,3.32842347 26.5726721,3.00401612 25.8889756,3.00401612 C25.3988178,3.00401612 24.9696668,3.12606005 24.5931078,3.36910478 L24.3680139,2.64935857 C24.8276683,2.36563253 25.3988178,2.22376951 26.0730477,2.22376951 C27.3689155,2.22376951 28.0242123,2.9017913 28.0242123,4.25887799 L28.0242123,6.07076083 C28.0242123,6.5672814 28.0452491,6.95218915 28.0936338,7.24530319 L27.1038516,7.24530319 L27.1038516,7.24530319 Z M26.9502829,4.79503675 C25.7248885,4.79503675 25.1127172,5.0891939 25.1127172,5.78703479 C25.1127172,6.30337446 25.4293212,6.55580718 25.8679388,6.55580718 C26.4296217,6.55580718 26.9502829,6.13126123 26.9502829,5.55442116 L26.9502829,4.79503675 L26.9502829,4.79503675 Z" id="Fill-17"></path>
                        <path d="M32.4892761,7.356916 C31.7855947,7.356916 31.2659854,7.06275886 30.9283445,6.48591878 L30.9073077,6.48591878 L30.8441973,7.24530319 L29.9059553,7.24530319 C29.9354069,6.85100744 29.9459253,6.40455617 29.9459253,5.91950981 L29.9459253,0.0687033358 L31.050358,0.0687033358 L31.050358,3.04574054 L31.070343,3.04574054 C31.3974655,2.49915067 31.9275932,2.22585573 32.6523115,2.22585573 C33.8472025,2.22585573 34.6844677,3.23871597 34.6844677,4.71576036 C34.6844677,6.24287405 33.7546405,7.356916 32.4892761,7.356916 L32.4892761,7.356916 Z M32.2652341,3.08433563 C31.6309741,3.08433563 31.050358,3.6309255 31.050358,4.3903099 L31.050358,5.25087602 C31.050358,5.92889781 31.572071,6.48591878 32.2452491,6.48591878 C33.0709441,6.48591878 33.5632055,5.8183281 33.5632055,4.75539856 C33.5621537,3.76340053 33.0509591,3.08433563 32.2652341,3.08433563 L32.2652341,3.08433563 Z" id="Fill-18"></path>
                        <polygon id="Fill-19" points="36.3158727 0.0687033358 37.4171499 0.0687033358 37.4171499 7.24530319 36.3158727 7.24530319"></polygon>
                        <path d="M43.4168494,5.04851259 L40.1077585,5.04851259 C40.1298471,5.98001022 40.7504332,6.50573788 41.6686901,6.50573788 C42.1598997,6.50573788 42.6090357,6.42437527 43.0066315,6.27312425 L43.1780815,7.03250866 C42.7089606,7.23487208 42.157796,7.33605379 41.5151214,7.33605379 C39.9626045,7.33605379 39.0443475,6.36387486 39.0443475,4.85658027 C39.0443475,3.34824257 39.9846931,2.21438152 41.392056,2.21438152 C42.6563686,2.21438152 43.4547157,3.14587914 43.4547157,4.55303513 C43.4578712,4.74496745 43.4484046,4.91708068 43.4168494,5.04851259 L43.4168494,5.04851259 Z M42.4070823,4.26930909 C42.4070823,3.50992469 42.0179012,2.97376592 41.3131679,2.97376592 C40.6799598,2.97376592 40.1813873,3.52035579 40.1077585,4.26930909 L42.4070823,4.26930909 L42.4070823,4.26930909 Z" id="Fill-20"></path>
                        <path d="M50.0981417,7.356916 C48.6487051,7.356916 47.7094114,6.28355536 47.7094114,4.82633007 C47.7094114,3.30756126 48.6686901,2.22481262 50.1812371,2.22481262 C51.6085849,2.22481262 52.5699673,3.24706086 52.5699673,4.74601056 C52.5699673,6.28355536 51.5791334,7.356916 50.0981417,7.356916 L50.0981417,7.356916 Z M50.1402153,3.02383522 C49.3439719,3.02383522 48.8338291,3.76235742 48.8338291,4.79503675 C48.8338291,5.80789699 49.3544903,6.54641919 50.1296969,6.54641919 C50.9049035,6.54641919 51.4255646,5.75678458 51.4255646,4.77417455 C51.4255646,3.77278852 50.9154219,3.02383522 50.1402153,3.02383522 L50.1402153,3.02383522 Z" id="Fill-21"></path>
                        <path d="M58.496038,7.24530319 L57.3958126,7.24530319 L57.3958126,4.42056011 C57.3958126,3.550606 57.0581717,3.11458583 56.3944602,3.11458583 C55.7412671,3.11458583 55.2910793,3.67160681 55.2910793,4.31937839 L55.2910793,7.24530319 L54.1908539,7.24530319 L54.1908539,3.73210721 C54.1908539,3.29713016 54.1782318,2.83085979 54.1487803,2.32495122 L55.1185774,2.32495122 L55.1701176,3.08433563 L55.2016728,3.08433563 C55.4951364,2.55860796 56.098893,2.22376951 56.7731229,2.22376951 C57.8123415,2.22376951 58.496038,3.01340412 58.496038,4.29851618 L58.496038,7.24530319" id="Fill-22"></path>
                        <path d="M65.7085098,3.14587914 L64.4957374,3.14587914 L64.4957374,5.53460206 C64.4957374,6.14273545 64.7092611,6.44628059 65.1373603,6.44628059 C65.330899,6.44628059 65.496038,6.42541838 65.6275181,6.39516817 L65.6580214,7.22548409 C65.4434459,7.3068467 65.1562934,7.34752801 64.8018231,7.34752801 C63.9319508,7.34752801 63.4144452,6.87186965 63.4144452,5.62639578 L63.4144452,3.14587914 L62.6918306,3.14587914 L62.6918306,2.32599434 L63.4144452,2.32599434 L63.4144452,1.42474691 L64.4957374,1.10033956 L64.4957374,2.32495122 L65.7085098,2.32495122 L65.7085098,3.14587914" id="Fill-23"></path>
                        <path d="M71.5462258,7.24530319 L70.4428449,7.24530319 L70.4428449,4.44142231 C70.4428449,3.5610371 70.105204,3.11562894 69.4425444,3.11562894 C68.8713948,3.11562894 68.3412671,3.50053669 68.3412671,4.2797402 L68.3412671,7.24530319 L67.2378862,7.24530319 L67.2378862,0.0687033358 L68.3412671,0.0687033358 L68.3412671,3.02383522 L68.3623039,3.02383522 C68.7083595,2.48767645 69.2100876,2.22376951 69.8527622,2.22376951 C70.9035511,2.22376951 71.5462258,3.03322322 71.5462258,4.31937839 L71.5462258,7.24530319" id="Fill-24"></path>
                        <path d="M77.1788329,5.04851259 L73.8707938,5.04851259 C73.8918306,5.98001022 74.5124166,6.50573788 75.4317254,6.50573788 C75.9239869,6.50573788 76.372071,6.42437527 76.7675631,6.27312425 L76.940065,7.03250866 C76.4719959,7.23487208 75.9197795,7.33605379 75.276053,7.33605379 C73.7245879,7.33605379 72.806331,6.36387486 72.806331,4.85658027 C72.806331,3.34824257 73.7456247,2.21438152 75.1529876,2.21438152 C76.418352,2.21438152 77.2156473,3.14587914 77.2156473,4.55303513 C77.2198547,4.74496745 77.2093362,4.91708068 77.1788329,5.04851259 L77.1788329,5.04851259 Z M76.1680139,4.26930909 C76.1680139,3.50992469 75.7809365,2.97376592 75.0762033,2.97376592 C74.4429951,2.97376592 73.9433708,3.52035579 73.8707938,4.26930909 L76.1680139,4.26930909 L76.1680139,4.26930909 Z" id="Fill-25"></path>
                    </g>
                </g>
            </g>
        </g>
    </g>
</svg>